<svg width="40" height="40" viewBox="0 0 40 40" fill="none" xmlns="http://www.w3.org/2000/svg">
    <g clip-path="url(#clip0_447_392)">
        <path
            d="M34.0626 4.6875H31.3166C27.4619 4.6875 23.6393 3.07556 20.8286 0.265198C20.3711 -0.192566 19.6289 -0.192566 19.1715 0.265198C16.3608 3.07556 12.5382 4.6875 8.68348 4.6875H5.9375C5.29022 4.6875 4.76562 5.2121 4.76562 5.85938V19.9219C4.76562 24.6128 6.23657 28.5752 9.26209 32.0356C11.7975 34.9353 14.9939 36.9544 17.5623 38.5767C18.1998 38.9792 18.8019 39.3595 19.35 39.7251C19.5468 39.8563 19.7736 39.9219 20 39.9219C20.2265 39.9219 20.4532 39.8563 20.6501 39.7251C21.1808 39.3714 21.7719 38.9988 22.3975 38.6045C27.5095 35.3824 35.2344 30.5133 35.2344 19.9219V5.85938C35.2344 5.2121 34.7098 4.6875 34.0626 4.6875ZM32.8907 19.9219C32.8907 29.2203 26.1036 33.498 21.1478 36.6214C20.7508 36.872 20.3672 37.1134 20.0003 37.3496C19.6204 37.1045 19.2243 36.8543 18.8138 36.5952C13.8742 33.4748 7.10938 29.2017 7.10938 19.9219V7.03126H8.68348C12.7857 7.03126 16.8497 5.46448 20 2.69867C23.1504 5.46448 27.2144 7.03126 31.3166 7.03126H32.8907V19.9219Z"
            fill="currentColor" />
        <path
            d="M20 9.375C14.1846 9.375 9.45312 14.1061 9.45312 19.9219C9.45312 25.7373 14.1846 30.4688 20 30.4688C25.8154 30.4688 30.5469 25.7373 30.5469 19.9219C30.5469 14.1061 25.8158 9.375 20 9.375ZM20 28.125C15.4767 28.125 11.7969 24.4452 11.7969 19.9219C11.7969 15.3986 15.4767 11.7188 20 11.7188C24.5233 11.7188 28.2031 15.3986 28.2031 19.9219C28.2031 24.4452 24.5233 28.125 20 28.125Z"
            fill="currentColor" />
        <path
            d="M23.859 16.7496L18.8281 21.7801L16.1411 19.0934C15.6836 18.6356 14.9414 18.6356 14.4839 19.0934C14.0262 19.5508 14.0262 20.293 14.4839 20.7505L17.9996 24.2661C18.2282 24.495 18.5281 24.6094 18.8281 24.6094C19.1281 24.6094 19.4281 24.495 19.6567 24.2661L25.5161 18.4067C25.9738 17.949 25.9738 17.2071 25.5161 16.7493C25.0586 16.2918 24.3164 16.2918 23.859 16.7496Z"
            fill="currentColor" />
    </g>
    <defs>
        <clipPath id="clip0_447_392">
            <rect width="40" height="40" fill="white" />
        </clipPath>
    </defs>
</svg>