<svg width="45" height="44" viewBox="0 0 45 44" fill="none" xmlns="http://www.w3.org/2000/svg">
    <g clip-path="url(#clip0_447_482)">
        <path fill-rule="evenodd" clip-rule="evenodd"
            d="M23 44C35.1502 44 45 34.1502 45 22C45 9.84984 35.1502 0 23 0C10.8498 0 1 9.84984 1 22C1 34.1502 10.8498 44 23 44ZM32.6699 14.0554C32.8397 12.1282 30.8043 12.9219 30.8043 12.9219C29.3017 13.5441 27.752 14.1759 26.1856 14.8148C21.328 16.7961 16.3102 18.843 12.0356 20.8578C9.71772 21.7078 11.0747 22.5579 11.0747 22.5579L14.7491 23.6918C16.4453 24.2022 17.3495 23.635 17.3495 23.635L25.2642 18.2503C28.0908 16.3231 27.4123 17.9102 26.7338 18.5904L20.7982 24.2585C19.8936 25.0523 20.3459 25.7325 20.7415 26.0726C21.8635 27.0622 24.6223 28.8728 25.8266 29.663C26.1398 29.8685 26.348 30.0054 26.395 30.0406C26.6775 30.2672 28.2039 31.2875 29.2216 31.0609C30.2393 30.8339 30.3524 29.5302 30.3524 29.5302L31.7089 20.6307C31.9122 19.0859 32.1458 17.6009 32.3324 16.4146C32.5084 15.2944 32.6426 14.4412 32.6699 14.0554Z"
            fill="currentColor" />
    </g>
    <defs>
        <clipPath id="clip0_447_482">
            <rect width="44" height="44" fill="white" transform="translate(0.96875)" />
        </clipPath>
    </defs>
</svg>