<svg width="40" height="40" viewBox="0 0 40 40" fill="none" xmlns="http://www.w3.org/2000/svg">
    <mask id="path-1-outside-1_447_376" maskUnits="userSpaceOnUse" x="-0.333984" y="1" width="41"
        height="37" fill="black">
        <rect fill="white" x="-0.333984" y="1" width="41" height="37" />
        <path
            d="M37.3993 2H7.7549C6.68715 2 5.82157 2.86287 5.82157 3.92727V12.9694C3.14841 13.1621 0.666016 13.969 0.666016 15.4909V34.7636C0.666016 36.529 4.00681 37.3333 7.11046 37.3333C9.3905 37.3333 11.793 36.8971 12.9105 35.9675C14.0279 36.8971 16.4304 37.3333 18.7104 37.3333C21.8141 37.3333 25.1549 36.529 25.1549 34.7636V24.4848H37.3993C38.4671 24.4848 39.3327 23.622 39.3327 22.5576V3.92727C39.3327 2.86287 38.4671 2 37.3993 2ZM7.11046 3.92727C7.11046 3.57247 7.39898 3.28485 7.7549 3.28485H37.3993C37.7552 3.28485 38.0438 3.57247 38.0438 3.92727V16.1333H13.5549V15.4909C13.5549 13.7255 10.2141 12.9212 7.11046 12.9212V3.92727ZM38.0438 19.9879H23.1474C21.7127 19.5375 20.2145 19.3206 18.7104 19.3455C16.9434 19.2869 15.1846 19.6104 13.5549 20.2937V17.4182H38.0438V19.9879ZM23.866 31.5515C23.866 31.8817 22.0931 32.8364 18.7104 32.8364C15.3278 32.8364 13.5549 31.8817 13.5549 31.5515V29.9609C15.1846 30.6441 16.9434 30.9676 18.7104 30.9091C20.4775 30.9676 22.2363 30.6441 23.866 29.9609V31.5515ZM23.866 21.9152C23.866 22.2454 22.0931 23.2 18.7104 23.2C15.3278 23.2 13.5549 22.2454 13.5549 21.9152C13.5549 21.5849 15.3278 20.6303 18.7104 20.6303C22.0931 20.6303 23.866 21.5849 23.866 21.9152ZM23.866 25.1273C23.866 25.4575 22.0931 26.4121 18.7104 26.4121C15.3278 26.4121 13.5549 25.4575 13.5549 25.1273V23.5366C15.1846 24.2199 16.9434 24.5434 18.7104 24.4848C20.4775 24.5434 22.2363 24.2199 23.866 23.5366V25.1273ZM12.266 18.703C12.266 19.0332 10.4931 19.9879 7.11046 19.9879C3.72777 19.9879 1.9549 19.0332 1.9549 18.703V17.1124C3.58464 17.7956 5.34343 18.1191 7.11046 18.0606C8.87748 18.1191 10.6363 17.7956 12.266 17.1124V18.703ZM7.11046 21.2727C8.87748 21.3312 10.6363 21.0078 12.266 20.3245V21.9152C12.266 22.2454 10.4931 23.2 7.11046 23.2C3.72777 23.2 1.9549 22.2454 1.9549 21.9152V20.3245C3.58464 21.0078 5.34343 21.3312 7.11046 21.2727ZM7.11046 24.4848C8.87748 24.5434 10.6363 24.2199 12.266 23.5366V25.1273C12.266 25.4575 10.4931 26.4121 7.11046 26.4121C3.72777 26.4121 1.9549 25.4575 1.9549 25.1273V23.5366C3.58464 24.2199 5.34343 24.5434 7.11046 24.4848ZM7.11046 27.697C8.87748 27.7555 10.6363 27.432 12.266 26.7487V28.3394C12.266 28.6696 10.4931 29.6242 7.11046 29.6242C3.72777 29.6242 1.9549 28.6696 1.9549 28.3394V26.7487C3.58464 27.432 5.34343 27.7555 7.11046 27.697ZM1.9549 29.9609C3.58464 30.6441 5.34343 30.9676 7.11046 30.9091C8.87748 30.9676 10.6363 30.6441 12.266 29.9609V31.5515C12.266 31.8817 10.4931 32.8364 7.11046 32.8364C3.72777 32.8364 1.9549 31.8817 1.9549 31.5515V29.9609ZM23.866 28.3394C23.866 28.6696 22.0931 29.6242 18.7104 29.6242C15.3278 29.6242 13.5549 28.6696 13.5549 28.3394V26.7487C15.1846 27.432 16.9434 27.7555 18.7104 27.697C20.4775 27.7555 22.2363 27.432 23.866 26.7487V28.3394ZM7.11046 14.2061C10.4931 14.2061 12.266 15.1607 12.266 15.4909C12.266 15.8211 10.4931 16.7758 7.11046 16.7758C3.72777 16.7758 1.9549 15.8211 1.9549 15.4909C1.9549 15.1607 3.72777 14.2061 7.11046 14.2061ZM7.11046 36.0485C3.72777 36.0485 1.9549 35.0938 1.9549 34.7636V33.173C3.58464 33.8562 5.34343 34.1797 7.11046 34.1212C8.87748 34.1797 10.6363 33.8562 12.266 33.173V34.7636C12.266 35.0938 10.4931 36.0485 7.11046 36.0485ZM18.7104 36.0485C15.3278 36.0485 13.5549 35.0938 13.5549 34.7636V33.173C15.1846 33.8562 16.9434 34.1797 18.7104 34.1212C20.4775 34.1797 22.2363 33.8562 23.866 33.173V34.7636C23.866 35.0938 22.0931 36.0485 18.7104 36.0485ZM37.3993 23.2H25.1549V21.9152C25.154 21.6906 25.0968 21.4697 24.9886 21.2727H38.0438V22.5576C38.0438 22.9124 37.7552 23.2 37.3993 23.2Z" />
    </mask>
    <path
        d="M37.3993 2H7.7549C6.68715 2 5.82157 2.86287 5.82157 3.92727V12.9694C3.14841 13.1621 0.666016 13.969 0.666016 15.4909V34.7636C0.666016 36.529 4.00681 37.3333 7.11046 37.3333C9.3905 37.3333 11.793 36.8971 12.9105 35.9675C14.0279 36.8971 16.4304 37.3333 18.7104 37.3333C21.8141 37.3333 25.1549 36.529 25.1549 34.7636V24.4848H37.3993C38.4671 24.4848 39.3327 23.622 39.3327 22.5576V3.92727C39.3327 2.86287 38.4671 2 37.3993 2ZM7.11046 3.92727C7.11046 3.57247 7.39898 3.28485 7.7549 3.28485H37.3993C37.7552 3.28485 38.0438 3.57247 38.0438 3.92727V16.1333H13.5549V15.4909C13.5549 13.7255 10.2141 12.9212 7.11046 12.9212V3.92727ZM38.0438 19.9879H23.1474C21.7127 19.5375 20.2145 19.3206 18.7104 19.3455C16.9434 19.2869 15.1846 19.6104 13.5549 20.2937V17.4182H38.0438V19.9879ZM23.866 31.5515C23.866 31.8817 22.0931 32.8364 18.7104 32.8364C15.3278 32.8364 13.5549 31.8817 13.5549 31.5515V29.9609C15.1846 30.6441 16.9434 30.9676 18.7104 30.9091C20.4775 30.9676 22.2363 30.6441 23.866 29.9609V31.5515ZM23.866 21.9152C23.866 22.2454 22.0931 23.2 18.7104 23.2C15.3278 23.2 13.5549 22.2454 13.5549 21.9152C13.5549 21.5849 15.3278 20.6303 18.7104 20.6303C22.0931 20.6303 23.866 21.5849 23.866 21.9152ZM23.866 25.1273C23.866 25.4575 22.0931 26.4121 18.7104 26.4121C15.3278 26.4121 13.5549 25.4575 13.5549 25.1273V23.5366C15.1846 24.2199 16.9434 24.5434 18.7104 24.4848C20.4775 24.5434 22.2363 24.2199 23.866 23.5366V25.1273ZM12.266 18.703C12.266 19.0332 10.4931 19.9879 7.11046 19.9879C3.72777 19.9879 1.9549 19.0332 1.9549 18.703V17.1124C3.58464 17.7956 5.34343 18.1191 7.11046 18.0606C8.87748 18.1191 10.6363 17.7956 12.266 17.1124V18.703ZM7.11046 21.2727C8.87748 21.3312 10.6363 21.0078 12.266 20.3245V21.9152C12.266 22.2454 10.4931 23.2 7.11046 23.2C3.72777 23.2 1.9549 22.2454 1.9549 21.9152V20.3245C3.58464 21.0078 5.34343 21.3312 7.11046 21.2727ZM7.11046 24.4848C8.87748 24.5434 10.6363 24.2199 12.266 23.5366V25.1273C12.266 25.4575 10.4931 26.4121 7.11046 26.4121C3.72777 26.4121 1.9549 25.4575 1.9549 25.1273V23.5366C3.58464 24.2199 5.34343 24.5434 7.11046 24.4848ZM7.11046 27.697C8.87748 27.7555 10.6363 27.432 12.266 26.7487V28.3394C12.266 28.6696 10.4931 29.6242 7.11046 29.6242C3.72777 29.6242 1.9549 28.6696 1.9549 28.3394V26.7487C3.58464 27.432 5.34343 27.7555 7.11046 27.697ZM1.9549 29.9609C3.58464 30.6441 5.34343 30.9676 7.11046 30.9091C8.87748 30.9676 10.6363 30.6441 12.266 29.9609V31.5515C12.266 31.8817 10.4931 32.8364 7.11046 32.8364C3.72777 32.8364 1.9549 31.8817 1.9549 31.5515V29.9609ZM23.866 28.3394C23.866 28.6696 22.0931 29.6242 18.7104 29.6242C15.3278 29.6242 13.5549 28.6696 13.5549 28.3394V26.7487C15.1846 27.432 16.9434 27.7555 18.7104 27.697C20.4775 27.7555 22.2363 27.432 23.866 26.7487V28.3394ZM7.11046 14.2061C10.4931 14.2061 12.266 15.1607 12.266 15.4909C12.266 15.8211 10.4931 16.7758 7.11046 16.7758C3.72777 16.7758 1.9549 15.8211 1.9549 15.4909C1.9549 15.1607 3.72777 14.2061 7.11046 14.2061ZM7.11046 36.0485C3.72777 36.0485 1.9549 35.0938 1.9549 34.7636V33.173C3.58464 33.8562 5.34343 34.1797 7.11046 34.1212C8.87748 34.1797 10.6363 33.8562 12.266 33.173V34.7636C12.266 35.0938 10.4931 36.0485 7.11046 36.0485ZM18.7104 36.0485C15.3278 36.0485 13.5549 35.0938 13.5549 34.7636V33.173C15.1846 33.8562 16.9434 34.1797 18.7104 34.1212C20.4775 34.1797 22.2363 33.8562 23.866 33.173V34.7636C23.866 35.0938 22.0931 36.0485 18.7104 36.0485ZM37.3993 23.2H25.1549V21.9152C25.154 21.6906 25.0968 21.4697 24.9886 21.2727H38.0438V22.5576C38.0438 22.9124 37.7552 23.2 37.3993 23.2Z"
        fill="currentColor" />
    <path
        d="M37.3993 2H7.7549C6.68715 2 5.82157 2.86287 5.82157 3.92727V12.9694C3.14841 13.1621 0.666016 13.969 0.666016 15.4909V34.7636C0.666016 36.529 4.00681 37.3333 7.11046 37.3333C9.3905 37.3333 11.793 36.8971 12.9105 35.9675C14.0279 36.8971 16.4304 37.3333 18.7104 37.3333C21.8141 37.3333 25.1549 36.529 25.1549 34.7636V24.4848H37.3993C38.4671 24.4848 39.3327 23.622 39.3327 22.5576V3.92727C39.3327 2.86287 38.4671 2 37.3993 2ZM7.11046 3.92727C7.11046 3.57247 7.39898 3.28485 7.7549 3.28485H37.3993C37.7552 3.28485 38.0438 3.57247 38.0438 3.92727V16.1333H13.5549V15.4909C13.5549 13.7255 10.2141 12.9212 7.11046 12.9212V3.92727ZM38.0438 19.9879H23.1474C21.7127 19.5375 20.2145 19.3206 18.7104 19.3455C16.9434 19.2869 15.1846 19.6104 13.5549 20.2937V17.4182H38.0438V19.9879ZM23.866 31.5515C23.866 31.8817 22.0931 32.8364 18.7104 32.8364C15.3278 32.8364 13.5549 31.8817 13.5549 31.5515V29.9609C15.1846 30.6441 16.9434 30.9676 18.7104 30.9091C20.4775 30.9676 22.2363 30.6441 23.866 29.9609V31.5515ZM23.866 21.9152C23.866 22.2454 22.0931 23.2 18.7104 23.2C15.3278 23.2 13.5549 22.2454 13.5549 21.9152C13.5549 21.5849 15.3278 20.6303 18.7104 20.6303C22.0931 20.6303 23.866 21.5849 23.866 21.9152ZM23.866 25.1273C23.866 25.4575 22.0931 26.4121 18.7104 26.4121C15.3278 26.4121 13.5549 25.4575 13.5549 25.1273V23.5366C15.1846 24.2199 16.9434 24.5434 18.7104 24.4848C20.4775 24.5434 22.2363 24.2199 23.866 23.5366V25.1273ZM12.266 18.703C12.266 19.0332 10.4931 19.9879 7.11046 19.9879C3.72777 19.9879 1.9549 19.0332 1.9549 18.703V17.1124C3.58464 17.7956 5.34343 18.1191 7.11046 18.0606C8.87748 18.1191 10.6363 17.7956 12.266 17.1124V18.703ZM7.11046 21.2727C8.87748 21.3312 10.6363 21.0078 12.266 20.3245V21.9152C12.266 22.2454 10.4931 23.2 7.11046 23.2C3.72777 23.2 1.9549 22.2454 1.9549 21.9152V20.3245C3.58464 21.0078 5.34343 21.3312 7.11046 21.2727ZM7.11046 24.4848C8.87748 24.5434 10.6363 24.2199 12.266 23.5366V25.1273C12.266 25.4575 10.4931 26.4121 7.11046 26.4121C3.72777 26.4121 1.9549 25.4575 1.9549 25.1273V23.5366C3.58464 24.2199 5.34343 24.5434 7.11046 24.4848ZM7.11046 27.697C8.87748 27.7555 10.6363 27.432 12.266 26.7487V28.3394C12.266 28.6696 10.4931 29.6242 7.11046 29.6242C3.72777 29.6242 1.9549 28.6696 1.9549 28.3394V26.7487C3.58464 27.432 5.34343 27.7555 7.11046 27.697ZM1.9549 29.9609C3.58464 30.6441 5.34343 30.9676 7.11046 30.9091C8.87748 30.9676 10.6363 30.6441 12.266 29.9609V31.5515C12.266 31.8817 10.4931 32.8364 7.11046 32.8364C3.72777 32.8364 1.9549 31.8817 1.9549 31.5515V29.9609ZM23.866 28.3394C23.866 28.6696 22.0931 29.6242 18.7104 29.6242C15.3278 29.6242 13.5549 28.6696 13.5549 28.3394V26.7487C15.1846 27.432 16.9434 27.7555 18.7104 27.697C20.4775 27.7555 22.2363 27.432 23.866 26.7487V28.3394ZM7.11046 14.2061C10.4931 14.2061 12.266 15.1607 12.266 15.4909C12.266 15.8211 10.4931 16.7758 7.11046 16.7758C3.72777 16.7758 1.9549 15.8211 1.9549 15.4909C1.9549 15.1607 3.72777 14.2061 7.11046 14.2061ZM7.11046 36.0485C3.72777 36.0485 1.9549 35.0938 1.9549 34.7636V33.173C3.58464 33.8562 5.34343 34.1797 7.11046 34.1212C8.87748 34.1797 10.6363 33.8562 12.266 33.173V34.7636C12.266 35.0938 10.4931 36.0485 7.11046 36.0485ZM18.7104 36.0485C15.3278 36.0485 13.5549 35.0938 13.5549 34.7636V33.173C15.1846 33.8562 16.9434 34.1797 18.7104 34.1212C20.4775 34.1797 22.2363 33.8562 23.866 33.173V34.7636C23.866 35.0938 22.0931 36.0485 18.7104 36.0485ZM37.3993 23.2H25.1549V21.9152C25.154 21.6906 25.0968 21.4697 24.9886 21.2727H38.0438V22.5576C38.0438 22.9124 37.7552 23.2 37.3993 23.2Z"
        stroke="currentColor" stroke-width="0.8" mask="url(#path-1-outside-1_447_376)" />
    <path
        d="M33.332 4.7998C35.2833 4.79987 36.8651 6.38179 36.8652 8.33301C36.8652 10.2844 35.2834 11.8661 33.332 11.8662H33.3311C32.6164 11.8638 31.9226 11.6406 31.3389 11.2324C30.7499 11.6414 30.0513 11.8649 29.332 11.8662C27.7917 11.8689 26.4268 10.8739 25.959 9.40625C25.4913 7.93874 26.0285 6.33735 27.2861 5.44824C28.5034 4.58788 30.1231 4.58838 31.3389 5.43262C31.9225 5.02474 32.6167 4.80221 33.3311 4.7998H33.332ZM33.332 6.5332C32.338 6.5332 31.5324 7.33905 31.5322 8.33301C31.5322 9.32712 32.3379 10.1338 33.332 10.1338C34.3261 10.1337 35.1318 9.32708 35.1318 8.33301C35.1317 7.33909 34.326 6.53327 33.332 6.5332ZM29.3311 6.5332C28.5598 6.53234 27.8736 7.02408 27.627 7.75488C27.3803 8.48578 27.628 9.29308 28.2422 9.75977C28.8081 10.1897 29.5685 10.2407 30.1836 9.90723C29.6715 8.91971 29.6708 7.74409 30.1836 6.75684C29.9232 6.61292 29.6305 6.53491 29.3311 6.5332Z"
        fill="currentColor" stroke="currentColor" stroke-width="0.4" />
    <path
        d="M16.665 12.7002C17.1989 12.7002 17.6318 13.1331 17.6318 13.667C17.6317 14.2007 17.1988 14.6338 16.665 14.6338H15.999C15.4653 14.6338 15.0324 14.2007 15.0322 13.667C15.0322 13.1331 15.4651 12.7002 15.999 12.7002H16.665Z"
        fill="currentColor" stroke="currentColor" stroke-width="0.6" />
    <path
        d="M19.999 12.7002C20.5329 12.7002 20.9658 13.1331 20.9658 13.667C20.9656 14.2007 20.5328 14.6338 19.999 14.6338H19.333C18.7992 14.6338 18.3664 14.2007 18.3662 13.667C18.3662 13.1331 18.7991 12.7002 19.333 12.7002H19.999Z"
        fill="currentColor" stroke="currentColor" stroke-width="0.6" />
    <path
        d="M23.333 12.7002C23.8669 12.7002 24.2998 13.1331 24.2998 13.667C24.2996 14.2007 23.8668 14.6338 23.333 14.6338H22.667C22.1332 14.6338 21.7004 14.2007 21.7002 13.667C21.7002 13.1331 22.1331 12.7002 22.667 12.7002H23.333Z"
        fill="currentColor" stroke="currentColor" stroke-width="0.6" />
</svg>