<svg width="52" height="52" viewBox="0 0 52 52" fill="none" xmlns="http://www.w3.org/2000/svg">
    <g clip-path="url(#clip0_447_474)">
        <g clip-path="url(#clip1_447_474)">
            <g clip-path="url(#clip2_447_474)">
                <path
                    d="M19.046 0C17.4548 0 16.0544 1.01857 15.5617 2.53449L1.04256 47.1907C0.679677 48.3069 0.874677 49.5399 1.56408 50.489C2.26172 51.4492 3.34163 52 4.52707 52H7.48264L19.3095 0H19.046Z"
                    fill="currentColor" />
                <path
                    d="M27.4928 0V4.84077C27.4928 5.68212 26.8107 6.36421 25.9694 6.36421C25.128 6.36421 24.4459 5.68212 24.4459 4.84077V0H22.4343L10.6074 52H24.4401V47.1592C24.4401 46.3179 25.1222 45.6358 25.9636 45.6358C26.8049 45.6358 27.487 46.3179 27.487 47.1592V52H42.3699L30.5431 0H27.4928ZM24.4372 14.4219V10.292C24.4372 9.4507 25.1193 8.7686 25.9606 8.7686C26.802 8.7686 27.4841 9.4507 27.4841 10.292V14.4219C27.4841 15.2632 26.802 15.9453 25.9606 15.9453C25.1193 15.9453 24.4372 15.2632 24.4372 14.4219ZM27.4899 19.0264V23.3594C27.4899 24.2007 26.8078 24.8828 25.9664 24.8828C25.1251 24.8828 24.443 24.2007 24.443 23.3594V19.0264C24.443 18.1851 25.1251 17.503 25.9664 17.503C26.8078 17.503 27.4899 18.1851 27.4899 19.0264ZM24.44 27.9639C24.44 27.1226 25.1221 26.4405 25.9635 26.4405C26.8048 26.4405 27.4869 27.1226 27.4869 27.9639V32.2969C27.4869 33.1382 26.8048 33.8203 25.9635 33.8203C25.1221 33.8203 24.44 33.1382 24.44 32.2969V27.9639ZM27.4928 41.3359C27.4928 42.1773 26.8107 42.8594 25.9694 42.8594C25.128 42.8594 24.4459 42.1773 24.4459 41.3359V37.003C24.4459 36.1616 25.128 35.4795 25.9694 35.4795C26.8107 35.4795 27.4928 36.1616 27.4928 37.003V41.3359Z"
                    fill="currentColor" />
                <path
                    d="M50.9738 47.2559L37.3676 2.5997C36.8938 1.04477 35.4852 0 33.8627 0H33.668L45.4947 52H47.4689C48.6406 52 49.7132 51.4593 50.4116 50.5165C51.112 49.5707 51.317 48.3822 50.9738 47.2559Z"
                    fill="currentColor" />
            </g>
        </g>
    </g>
    <defs>
        <clipPath id="clip0_447_474">
            <rect width="52" height="52" fill="white" />
        </clipPath>
        <clipPath id="clip1_447_474">
            <rect width="52" height="52" fill="white" />
        </clipPath>
        <clipPath id="clip2_447_474">
            <rect width="52" height="52" fill="white" />
        </clipPath>
    </defs>
</svg>