<svg width="52" height="52" viewBox="0 0 52 52" fill="none" xmlns="http://www.w3.org/2000/svg">
    <g clip-path="url(#clip0_447_453)">
        <g clip-path="url(#clip1_447_453)">
            <path
                d="M48.0071 1.88388C46.3382 1.59796 44.7535 2.71898 44.4676 4.38785L44.0371 6.30547C43.8118 7.30846 43.9182 8.32617 44.2978 9.2281C44.3676 9.21977 44.4364 9.21236 44.5042 9.20586C44.7683 9.18057 45.036 9.16777 45.2997 9.16777C46.9442 9.16777 48.492 9.66627 49.701 10.5592L50.5173 5.38617C50.7803 3.72837 49.6614 2.16726 48.0071 1.88388Z"
                fill="currentColor" />
            <path
                d="M-1.44531 14.6266V20.7207C-1.44531 21.5621 -0.763178 22.2442 0.078217 22.2442H3.05834V13.103H0.078217C-0.763178 13.103 -1.44531 13.7852 -1.44531 14.6266Z"
                fill="currentColor" />
            <path
                d="M9.15253 9.37216C9.15253 8.53209 8.46907 7.84863 7.629 7.84863C6.78892 7.84863 6.10547 8.53209 6.10547 9.37216V25.9763C6.10547 26.8164 6.78892 27.4998 7.629 27.4998C8.46907 27.4998 9.15253 26.8164 9.15253 25.9763V9.37216Z"
                fill="currentColor" />
            <path
                d="M19.582 32.859C21.9425 32.859 24.0673 31.1298 25.5649 27.9899C26.8915 25.2089 27.622 21.5451 27.622 17.6736C27.622 13.8021 26.8915 10.1384 25.5649 7.35738C24.0673 4.21749 21.9425 2.48828 19.582 2.48828C17.2499 2.48828 14.5386 4.20692 12.3293 7.08579C12.2793 7.15099 12.2306 7.21691 12.1816 7.28263C12.1889 8.44224 12.1816 28.0648 12.1816 28.0648C12.2306 28.1306 12.2793 28.1965 12.3293 28.2616C14.5386 31.1403 17.25 32.859 19.582 32.859Z"
                fill="currentColor" />
            <path
                d="M44.7935 12.2387C42.7144 12.4372 40.8863 13.6282 39.36 15.7783C38.3933 17.14 37.5561 18.8662 36.8004 21.0557C34.8414 26.7317 34.5898 32.8255 36.11 37.7749C36.1667 37.9592 36.2269 38.1427 36.2889 38.3258C32.9326 37.1707 29.0952 36.3988 25.2594 36.1227C20.4563 35.777 16.0488 36.2017 12.5128 37.3508C10.0614 38.1474 8.63999 40.7113 9.27682 43.1878C9.28739 43.2293 9.29988 43.2703 9.314 43.3107L11.3494 49.139C11.563 49.7505 12.1399 50.1602 12.7877 50.1602H41.8739C42.6047 50.1602 43.2327 49.6412 43.3702 48.9232L44.3699 43.703C44.3812 43.6441 44.3877 43.5855 44.3919 43.5271C43.5646 44.3527 42.4234 44.864 41.165 44.864C38.6448 44.864 36.5944 42.8137 36.5944 40.2934C36.5944 37.7732 38.6448 35.7229 41.165 35.7229C42.8894 35.7229 44.3935 36.6831 45.1717 38.0966L49.1063 16.1765C49.2897 15.1221 49.0195 14.1405 48.3455 13.4125C47.5397 12.5418 46.2126 12.1029 44.7935 12.2387Z"
                fill="currentColor" />
            <path
                d="M41.1642 41.8176C42.0056 41.8176 42.6877 41.1355 42.6877 40.294C42.6877 39.4526 42.0056 38.7705 41.1642 38.7705C40.3227 38.7705 39.6406 39.4526 39.6406 40.294C39.6406 41.1355 40.3227 41.8176 41.1642 41.8176Z"
                fill="currentColor" />
        </g>
    </g>
    <defs>
        <clipPath id="clip0_447_453">
            <rect width="52" height="52" fill="white" />
        </clipPath>
        <clipPath id="clip1_447_453">
            <rect width="52" height="52" fill="white" transform="translate(-1.44531)" />
        </clipPath>
    </defs>
</svg>