<svg width="45" height="44" viewBox="0 0 45 44" fill="none" xmlns="http://www.w3.org/2000/svg">
    <g clip-path="url(#clip0_447_485)">
        <path fill-rule="evenodd" clip-rule="evenodd"
            d="M23 44C35.1502 44 45 34.1502 45 22C45 9.84975 35.1502 0 23 0C10.8498 0 1 9.84975 1 22C1 34.1502 10.8498 44 23 44ZM31.6955 12.7568C29.4316 10.49 26.4205 9.24119 23.2126 9.24C16.6031 9.24 11.2232 14.6191 11.2208 21.231C11.2201 23.3445 11.7722 25.4076 12.8214 27.2258L11.12 33.44L17.477 31.7726C19.2284 32.7282 21.2007 33.2315 23.2074 33.2323H23.2122C29.8213 33.2323 35.2012 27.8524 35.204 21.241C35.206 18.0363 33.9599 15.0236 31.6955 12.7568ZM28.6798 23.7419C28.3801 23.5918 26.9072 22.8672 26.6322 22.7671C26.3578 22.6671 26.1577 22.6171 25.958 22.9172C25.7584 23.2173 25.1842 23.8919 25.0093 24.092C24.8344 24.292 24.6596 24.3169 24.3603 24.1668C24.3113 24.1423 24.2445 24.1133 24.162 24.0775C23.74 23.8945 22.9078 23.5336 21.9506 22.6795C21.0599 21.8848 20.4585 20.9037 20.2837 20.604C20.1088 20.3039 20.2648 20.1418 20.4149 19.9925C20.5049 19.9029 20.6082 19.777 20.7114 19.6513C20.7629 19.5885 20.8144 19.5258 20.8642 19.4676C20.9912 19.3193 21.0464 19.2067 21.1213 19.0542C21.1347 19.0268 21.1487 18.9981 21.164 18.9678C21.264 18.7678 21.214 18.5929 21.1392 18.4428C21.0892 18.3426 20.8052 17.6513 20.5477 17.0246C20.4196 16.713 20.2981 16.4172 20.2152 16.218C20.0004 15.7023 19.7829 15.7036 19.6082 15.7047C19.585 15.7048 19.5625 15.705 19.541 15.7039C19.3665 15.6951 19.1665 15.6935 18.9668 15.6935C18.7671 15.6935 18.4426 15.7683 18.1677 16.0684C18.15 16.0878 18.1302 16.1089 18.1087 16.1319C17.7965 16.4652 17.119 17.1885 17.119 18.5681C17.119 20.0394 18.1873 21.4609 18.3415 21.6661L18.3426 21.6675C18.3523 21.6806 18.3697 21.7056 18.3947 21.7413C18.7523 22.2544 20.6511 24.9784 23.4612 26.1919C24.1762 26.5008 24.734 26.6849 25.1693 26.8229C25.8872 27.051 26.5402 27.019 27.0568 26.9418C27.6326 26.8558 28.8294 26.2171 29.0791 25.5173C29.3288 24.8175 29.3288 24.2173 29.254 24.0924C29.1936 23.9914 29.052 23.9228 28.8421 23.8214C28.7919 23.7971 28.7376 23.7709 28.6798 23.7419Z"
            fill="currentColor" />
    </g>
    <defs>
        <clipPath id="clip0_447_485">
            <rect width="44" height="44" fill="white" transform="translate(0.96875)" />
        </clipPath>
    </defs>
</svg>