<svg width="40" height="40" viewBox="0 0 40 40" fill="none" xmlns="http://www.w3.org/2000/svg">
    <g clip-path="url(#clip0_447_402)">
        <path
            d="M39.9779 17.4705L39.9759 15.7276C39.9737 14.0796 38.6165 12.7353 36.9504 12.731C36.9477 12.731 36.9451 12.731 36.9424 12.731C36.1301 12.731 35.3684 13.0449 34.7973 13.6154C34.233 14.179 33.9227 14.9269 33.9238 15.721L33.9466 36.0588C33.9469 36.2892 34.0151 36.5146 34.1427 36.7065L35.9855 39.4771C36.2021 39.8028 36.5669 39.9988 36.958 39.9999C36.9591 39.9999 36.9602 39.9999 36.9613 39.9999C37.3511 39.9999 37.7155 39.8061 37.9334 39.4826L39.7989 36.712C39.9294 36.5182 39.999 36.2898 39.9988 36.0561L39.9779 17.4705ZM36.2677 15.7182C36.2673 15.5516 36.3334 15.3937 36.4536 15.2737C36.5821 15.1453 36.7557 15.0747 36.9426 15.0747C36.9432 15.0747 36.9438 15.0747 36.9445 15.0747C37.3232 15.0757 37.6317 15.37 37.6323 15.7306L37.6331 16.5153H36.2685L36.2677 15.7182ZM36.2711 18.859H37.6357L37.65 31.5931H36.2854L36.2711 18.859ZM36.9673 36.7211L36.29 35.7028L36.288 33.9368H37.6527L37.6546 35.7004L36.9673 36.7211Z"
            fill="currentColor" />
        <path
            d="M27.7128 0H3.51563C1.57711 0 0 1.57711 0 3.51562V36.4844C0 38.4229 1.57711 40 3.51563 40H27.7128C29.6513 40 31.2284 38.4229 31.2284 36.4844V3.51562C31.2284 1.57711 29.6513 0 27.7128 0ZM28.8846 36.4844C28.8846 37.1305 28.3589 37.6562 27.7128 37.6562H3.51563C2.86946 37.6562 2.34375 37.1305 2.34375 36.4844V3.51562C2.34375 2.86945 2.86946 2.34375 3.51563 2.34375H27.7128C28.3589 2.34375 28.8846 2.86945 28.8846 3.51562V36.4844Z"
            fill="currentColor" />
        <path
            d="M24.5721 6.61572H6.66016C6.01297 6.61572 5.48828 7.14041 5.48828 7.7876C5.48828 8.43479 6.01297 8.95947 6.66016 8.95947H24.5721C25.2193 8.95947 25.744 8.43479 25.744 7.7876C25.744 7.14041 25.2193 6.61572 24.5721 6.61572Z"
            fill="currentColor" />
        <path
            d="M24.5721 11.6704H6.66016C6.01297 11.6704 5.48828 12.1951 5.48828 12.8423C5.48828 13.4895 6.01297 14.0142 6.66016 14.0142H24.5721C25.2193 14.0142 25.744 13.4895 25.744 12.8423C25.744 12.1951 25.2193 11.6704 24.5721 11.6704Z"
            fill="currentColor" />
        <path
            d="M24.5721 16.7256H6.66016C6.01297 16.7256 5.48828 17.2503 5.48828 17.8975C5.48828 18.5446 6.01297 19.0693 6.66016 19.0693H24.5721C25.2193 19.0693 25.744 18.5446 25.744 17.8975C25.744 17.2503 25.2193 16.7256 24.5721 16.7256Z"
            fill="currentColor" />
        <path
            d="M17.7101 21.7803H6.66016C6.01297 21.7803 5.48828 22.305 5.48828 22.9521C5.48828 23.5993 6.01297 24.124 6.66016 24.124H17.7101C18.3573 24.124 18.882 23.5993 18.882 22.9521C18.882 22.305 18.3573 21.7803 17.7101 21.7803Z"
            fill="currentColor" />
        <path
            d="M21.7227 25.4365C18.8633 25.4365 16.5371 27.7288 16.5371 30.5463C16.5371 33.3638 18.8634 35.656 21.7227 35.656C24.582 35.656 26.9082 33.3638 26.9082 30.5463C26.9082 27.7288 24.582 25.4365 21.7227 25.4365ZM21.7227 33.3123C20.1556 33.3123 18.8809 32.0715 18.8809 30.5464C18.8809 29.0212 20.1557 27.7804 21.7227 27.7804C23.2896 27.7804 24.5645 29.0212 24.5645 30.5464C24.5645 32.0715 23.2897 33.3123 21.7227 33.3123Z"
            fill="currentColor" />
    </g>
    <defs>
        <clipPath id="clip0_447_402">
            <rect width="40" height="40" fill="white" />
        </clipPath>
    </defs>
</svg>