<svg width="52" height="52" viewBox="0 0 52 52" fill="none" xmlns="http://www.w3.org/2000/svg">
    <g clip-path="url(#clip0_447_462)">
        <g clip-path="url(#clip1_447_462)">
            <g clip-path="url(#clip2_447_462)">
                <path fill-rule="evenodd" clip-rule="evenodd"
                    d="M51.9586 35.5329V35.3316C51.9586 34.0587 51.0165 33.0234 49.7556 32.8465L49.1934 32.7676V34.5692C49.1934 35.0981 49.6283 35.5329 50.1571 35.5329H51.9586Z"
                    fill="currentColor" />
                <path fill-rule="evenodd" clip-rule="evenodd"
                    d="M5.7137 42.6047C5.06917 42.6047 4.50802 42.0445 4.51174 41.3991L4.55312 34.0816V23.1624C4.55312 22.335 5.22788 21.6602 6.05521 21.6602H21.6691C21.9073 22.4694 22.2206 23.2571 22.6072 24.0138L22.929 24.6436H34.831L37.4041 31.0472L48.0389 32.5402V34.5694C48.0389 35.7359 48.9916 36.6885 50.1581 36.6885H52.0011V41.5587C52.0011 42.1162 51.5167 42.6047 50.9583 42.6047H49.5352C49.5352 39.6591 47.1467 37.2705 44.201 37.2705C41.2555 37.2705 38.8668 39.6591 38.8668 42.6047H17.5991C17.5991 39.6591 15.2104 37.2705 12.2649 37.2705C9.31922 37.2705 6.93053 39.6592 6.93053 42.6047H5.7137ZM25.5097 35.2406C24.7485 35.2406 24.7485 36.3982 25.5097 36.3982H27.2339C27.9952 36.3982 27.9952 35.2406 27.2339 35.2406H25.5097ZM9.9292 32.7912V25.5265H15.7351V32.7912H9.9292ZM17.7607 25.5265H22.8431V32.7912H17.7607V25.5265ZM24.8687 25.5265H30.3852L32.6423 32.7912H24.8687V25.5265Z"
                    fill="currentColor" />
                <path fill-rule="evenodd" clip-rule="evenodd"
                    d="M3.35349 27.75H2.29872C1.0345 27.75 0 28.7845 0 30.0488V34.4371C0 35.7013 1.0345 36.7358 2.29872 36.7358H3.35349V27.75Z"
                    fill="currentColor" />
                <path fill-rule="evenodd" clip-rule="evenodd"
                    d="M12.2647 38.4268C14.5726 38.4268 16.4435 40.2977 16.4435 42.6055C16.4435 44.9134 14.5726 46.7843 12.2647 46.7843C9.95677 46.7843 8.08594 44.9134 8.08594 42.6055C8.08594 40.2977 9.95677 38.4268 12.2647 38.4268ZM12.2647 41.2121C13.0344 41.2121 13.6581 41.836 13.6581 42.6055C13.6581 43.3752 13.0344 43.9991 12.2647 43.9991C11.4951 43.9991 10.8712 43.3752 10.8712 42.6055C10.8712 41.836 11.4951 41.2121 12.2647 41.2121Z"
                    fill="currentColor" />
                <path fill-rule="evenodd" clip-rule="evenodd"
                    d="M44.2003 38.4268C46.5081 38.4268 48.3791 40.2977 48.3791 42.6055C48.3791 44.9134 46.5081 46.7843 44.2003 46.7843C41.8924 46.7843 40.0215 44.9134 40.0215 42.6055C40.0215 40.2977 41.8924 38.4268 44.2003 38.4268ZM44.2003 41.212C44.9699 41.212 45.5938 41.8359 45.5938 42.6055C45.5938 43.3752 44.9699 43.999 44.2003 43.999C43.4308 43.999 42.8069 43.3752 42.8069 42.6055C42.8069 41.8359 43.4308 41.212 44.2003 41.212Z"
                    fill="currentColor" />
                <path fill-rule="evenodd" clip-rule="evenodd"
                    d="M35.4181 5.21654C37.2888 5.30111 39.053 5.79473 40.6236 6.60959L38.9747 9.46574C38.8163 9.74116 38.9113 10.0928 39.1867 10.2511C39.4622 10.4093 39.8139 10.3144 39.9721 10.039L41.6193 7.18586C43.1483 8.16638 44.4509 9.46886 45.4317 10.9977L42.5783 12.6451C42.3027 12.8034 42.2078 13.155 42.3661 13.4304C42.5244 13.7058 42.876 13.8008 43.1514 13.6426L46.008 11.9933C46.8233 13.5638 47.3168 15.3281 47.4013 17.1991H44.1042C43.7851 17.1991 43.5265 17.4578 43.5265 17.7769C43.5265 18.096 43.7851 18.3546 44.1042 18.3546H47.4013C47.318 20.197 46.838 21.9359 46.045 23.4884H23.6358C22.8427 21.9359 22.3627 20.197 22.2793 18.3546H25.5764C25.8955 18.3546 26.1542 18.096 26.1542 17.7769C26.1542 17.4578 25.8955 17.1991 25.5764 17.1991H22.2793C22.364 15.3282 22.8574 13.5639 23.6725 11.9932L26.5292 13.6426C26.8046 13.8008 27.1564 13.706 27.3146 13.4305C27.4729 13.155 27.3779 12.8034 27.1025 12.6451L24.2486 10.9975C25.2294 9.4685 26.532 8.16578 28.0609 7.18502L29.7087 10.0389C29.8669 10.3143 30.2186 10.4093 30.494 10.2511C30.7694 10.0928 30.8643 9.74116 30.7061 9.46562L29.0571 6.60947C30.6278 5.79437 32.3917 5.30051 34.2625 5.21582V8.51305C34.2625 8.83202 34.5213 9.09076 34.8404 9.09076C35.1595 9.09076 35.4181 8.83202 35.4181 8.51305V5.21654ZM33.3364 18.7272L32.7505 11.7525L35.7305 18.0853C36.2248 18.3862 36.5549 18.93 36.5549 19.5511C36.5549 20.4981 35.7873 21.2657 34.8404 21.2657C33.8933 21.2657 33.1257 20.4981 33.1257 19.5511C33.1257 19.2525 33.202 18.9717 33.3364 18.7272Z"
                    fill="currentColor" />
            </g>
        </g>
    </g>
    <defs>
        <clipPath id="clip0_447_462">
            <rect width="52" height="52" fill="white" />
        </clipPath>
        <clipPath id="clip1_447_462">
            <rect width="52" height="52" fill="white" />
        </clipPath>
        <clipPath id="clip2_447_462">
            <rect width="52" height="52" fill="white" />
        </clipPath>
    </defs>
</svg>