<svg width="40" height="40" viewBox="0 0 40 40" fill="none" xmlns="http://www.w3.org/2000/svg">
    <g clip-path="url(#clip0_447_396)">
        <path
            d="M7.78602 24.4282C3.49605 24.4282 0.00585938 27.9184 0.00585938 32.2084C0.00585938 36.4984 3.49605 39.9886 7.78602 39.9886C12.076 39.9886 15.5662 36.4984 15.5662 32.2084C15.5662 27.9184 12.076 24.4282 7.78602 24.4282ZM7.78602 37.4086C4.91865 37.4086 2.58581 35.0758 2.58581 32.2084C2.58581 29.341 4.91865 27.0082 7.78602 27.0082C10.6534 27.0082 12.9862 29.341 12.9862 32.2084C12.9862 35.0758 10.6534 37.4086 7.78602 37.4086Z"
            fill="currentColor" />
        <path
            d="M36.0445 12.1741V10.4004C36.0445 8.26648 34.3085 6.53049 32.1746 6.53049H29.9171V3.22494C29.9171 1.44671 28.4704 0 26.6922 0H17.3399C15.5617 0 14.115 1.44671 14.115 3.22494V6.53049H6.45573C2.89927 6.53049 0.00585938 9.42391 0.00585938 12.9804V23.3808C0.00585938 24.0932 0.583365 24.6708 1.29583 24.6708C2.0083 24.6708 2.58581 24.0932 2.58581 23.3808V12.9804C2.58581 10.8464 4.32179 9.11044 6.45573 9.11044H14.115V12.1741H10.4063C9.69381 12.1741 9.1163 12.7516 9.1163 13.4641C9.1163 14.1766 9.69381 14.7541 10.4063 14.7541H36.1251C36.8364 14.7541 37.4151 15.3365 37.4151 16.0524V36.1111C37.4151 36.8269 36.8364 37.4093 36.1251 37.4093H21.0083C20.2958 37.4093 19.7183 37.9868 19.7183 38.6993C19.7183 39.4118 20.2958 39.9893 21.0083 39.9893H36.1251C38.259 39.9893 39.9951 38.2495 39.9951 36.1111V16.0524C39.9951 14.0089 38.3829 12.1741 36.0445 12.1741ZM32.1746 9.11044C32.8859 9.11044 33.4646 9.68916 33.4646 10.4004V12.1741H29.9171V9.11044H32.1746ZM27.3372 3.22494V12.1741H21.5726V2.57995H26.6922C27.0478 2.57995 27.3372 2.86931 27.3372 3.22494ZM16.6949 3.22494C16.6949 2.86931 16.9843 2.57995 17.3399 2.57995H18.9927V12.1741H16.6949V3.22494Z"
            fill="currentColor" />
        <path
            d="M34.2715 26.3238C34.2715 24.9679 33.1684 23.8647 31.8125 23.8647C30.4567 23.8647 29.3535 24.9679 29.3535 26.3238C29.3535 27.6796 30.4567 28.7828 31.8125 28.7828C33.1684 28.7828 34.2715 27.6796 34.2715 26.3238Z"
            fill="currentColor" />
        <path
            d="M15.9881 38.2061C15.2978 39.8674 18.0311 40.876 18.4439 38.9519C18.745 37.3942 16.5424 36.8077 15.9881 38.2061Z"
            fill="currentColor" />
        <path d="M5.33398 31.9998L7.33398 33.6665L10.334 30.6665" stroke="currentColor"
            stroke-width="3" stroke-linecap="round" stroke-linejoin="round" />
    </g>
    <defs>
        <clipPath id="clip0_447_396">
            <rect width="40" height="40" fill="white" />
        </clipPath>
    </defs>
</svg>