<svg width="40" height="40" viewBox="0 0 40 40" fill="none" xmlns="http://www.w3.org/2000/svg">
    <path
        d="M9.29728 13.7565C9.38269 14.0909 9.65482 14.375 10 14.375C10.3452 14.375 10.6173 14.0909 10.7027 13.7565C10.8129 13.3252 11.0372 12.9273 11.3572 12.6072C11.6773 12.2872 12.0752 12.0629 12.5065 11.9527C12.8409 11.8673 13.125 11.5952 13.125 11.25C13.125 10.9048 12.8409 10.6327 12.5065 10.5473C12.0752 10.4371 11.6773 10.2128 11.3572 9.89277C11.0372 9.5727 10.8129 9.17479 10.7027 8.74353C10.6173 8.40908 10.3452 8.125 10 8.125C9.65482 8.125 9.38269 8.40908 9.29728 8.74353C9.18715 9.17479 8.96283 9.5727 8.64277 9.89277C8.3227 10.2128 7.92479 10.4371 7.49353 10.5473C7.15908 10.6327 6.875 10.9048 6.875 11.25C6.875 11.5952 7.15908 11.8673 7.49353 11.9527C7.92479 12.0629 8.3227 12.2872 8.64277 12.6072C8.96283 12.9273 9.18715 13.3252 9.29728 13.7565ZM9.52461 10.7746C9.77711 10.5221 10.2229 10.5221 10.4754 10.7746C10.7279 11.0271 10.7279 11.4729 10.4754 11.7254C10.2229 11.9779 9.77711 11.9779 9.52461 11.7254C9.2721 11.4729 9.2721 11.0271 9.52461 10.7746Z"
        fill="currentColor" />
    <path
        d="M29.2973 13.7565C29.3827 14.0909 29.6548 14.375 30 14.375C30.3452 14.375 30.6173 14.0909 30.7027 13.7565C30.8129 13.3252 31.0372 12.9273 31.3572 12.6072C31.6773 12.2872 32.0752 12.0629 32.5065 11.9527C32.8409 11.8673 33.125 11.5952 33.125 11.25C33.125 10.9048 32.8409 10.6327 32.5065 10.5473C32.0752 10.4371 31.6773 10.2128 31.3572 9.89277C31.0372 9.5727 30.8129 9.17479 30.7027 8.74353C30.6173 8.40908 30.3452 8.125 30 8.125C29.6548 8.125 29.3827 8.40908 29.2973 8.74353C29.1871 9.17479 28.9628 9.5727 28.6428 9.89277C28.3227 10.2128 27.9248 10.4371 27.4935 10.5473C27.1591 10.6327 26.875 10.9048 26.875 11.25C26.875 11.5952 27.1591 11.8673 27.4935 11.9527C27.9248 12.0629 28.3227 12.2872 28.6428 12.6072C28.9628 12.9273 29.1871 13.3252 29.2973 13.7565ZM29.5246 10.7746C29.7771 10.5221 30.2229 10.5221 30.4754 10.7746C30.7279 11.0271 30.7279 11.4729 30.4754 11.7254C30.2229 11.9779 29.7771 11.9779 29.5246 11.7254C29.2721 11.4729 29.2721 11.0271 29.5246 10.7746Z"
        fill="currentColor" />
    <path
        d="M19.2973 8.13147C19.3827 8.46592 19.6548 8.75 20 8.75C20.3452 8.75 20.6173 8.46592 20.7027 8.13147C20.8129 7.70021 21.0372 7.3023 21.3572 6.98223C21.6773 6.66217 22.0752 6.43785 22.5065 6.32772C22.8409 6.24231 23.125 5.97018 23.125 5.625C23.125 5.27982 22.8409 5.00769 22.5065 4.92228C22.0752 4.81215 21.6773 4.58783 21.3572 4.26777C21.0372 3.9477 20.8129 3.54979 20.7027 3.11853C20.6173 2.78408 20.3452 2.5 20 2.5C19.6548 2.5 19.3827 2.78408 19.2973 3.11853C19.1871 3.54979 18.9628 3.9477 18.6428 4.26777C18.3227 4.58783 17.9248 4.81215 17.4935 4.92228C17.1591 5.00769 16.875 5.27982 16.875 5.625C16.875 5.97018 17.1591 6.24231 17.4935 6.32772C17.9248 6.43785 18.3227 6.66217 18.6428 6.98223C18.9628 7.3023 19.1871 7.70021 19.2973 8.13147ZM19.5246 5.14961C19.7771 4.8971 20.2229 4.8971 20.4754 5.14961C20.7279 5.40211 20.7279 5.84789 20.4754 6.10039C20.2229 6.3529 19.7771 6.3529 19.5246 6.10039C19.2721 5.84789 19.2721 5.40211 19.5246 5.14961Z"
        fill="currentColor" />
    <path
        d="M9.0917 27.6017L4.7167 24.7417C4.62519 24.6816 4.5195 24.6466 4.41022 24.6402C4.30093 24.6338 4.19188 24.6562 4.09397 24.7052C3.99607 24.7542 3.91275 24.828 3.85235 24.9193C3.79195 25.0107 3.7566 25.1162 3.74982 25.2255L3.57545 28.0086C3.56833 28.1219 3.59221 28.235 3.64451 28.3358C3.69681 28.4365 3.77557 28.5211 3.87232 28.5805L6.37232 30.1142C6.47662 30.1781 6.59734 30.2099 6.71954 30.2058C6.84174 30.2017 6.96005 30.1618 7.05982 30.0911L9.1092 28.6342C9.19216 28.5753 9.25946 28.4969 9.30526 28.4061C9.35106 28.3152 9.37397 28.2145 9.372 28.1127C9.37003 28.0109 9.34323 27.9112 9.29395 27.8222C9.24466 27.7331 9.17438 27.6574 9.0892 27.6017H9.0917ZM6.67482 28.8324L4.84732 27.7117L4.9317 26.3749L7.64045 28.1455L6.67482 28.8324Z"
        fill="currentColor" />
    <path
        d="M30.6251 28.1126C30.6231 28.2144 30.6461 28.3152 30.6919 28.4061C30.7378 28.4971 30.8052 28.5755 30.8882 28.6344L32.9376 30.0913C33.0374 30.162 33.1557 30.2018 33.2779 30.206C33.4001 30.2101 33.5208 30.1782 33.6251 30.1144L36.1251 28.5807C36.2219 28.5213 36.3006 28.4367 36.3529 28.3359C36.4052 28.2352 36.4291 28.1221 36.422 28.0088L36.2501 25.2257C36.2432 25.1166 36.2078 25.0113 36.1475 24.9201C36.0872 24.829 36.004 24.7553 35.9063 24.7063C35.8086 24.6574 35.6998 24.6349 35.5907 24.6412C35.4815 24.6474 35.376 24.6821 35.2845 24.7419L30.9095 27.6019C30.8241 27.6574 30.7535 27.733 30.7039 27.8219C30.6544 27.9109 30.6273 28.0107 30.6251 28.1126ZM35.0682 26.3751L35.1526 27.7113L33.3251 28.8326L32.3595 28.1451L35.0682 26.3751Z"
        fill="currentColor" />
    <mask id="path-6-outside-1_447_384" maskUnits="userSpaceOnUse" x="-0.373047" y="14" width="41"
        height="25" fill="black">
        <rect fill="white" x="-0.373047" y="14" width="41" height="25" />
        <path
            d="M38.1255 21.875C38.2077 21.875 38.2891 21.8587 38.365 21.8272C38.441 21.7957 38.5099 21.7495 38.568 21.6913L39.193 21.0663C39.2854 20.9735 39.3464 20.854 39.3672 20.7247C39.3881 20.5954 39.3678 20.4628 39.3092 20.3456L38.6842 19.0956C38.6324 18.9918 38.5526 18.9045 38.4539 18.8435C38.3552 18.7824 38.2415 18.7501 38.1255 18.75H35.6255C35.4597 18.75 35.3008 18.8159 35.1836 18.9331L34.5586 19.5581C34.4658 19.6508 34.4045 19.7703 34.3835 19.8998C34.3624 20.0292 34.3825 20.162 34.4411 20.2794L34.9267 21.25L34.688 21.7275L33.7961 19.9437C33.1624 18.676 32.2081 17.596 31.0279 16.8111C29.8478 16.0261 28.4828 15.5636 27.0686 15.4694L20.0417 15C20.0142 15 19.9867 15 19.9592 15L12.9323 15.4681C11.2752 15.5766 9.69151 16.1921 8.39608 17.2312C7.47951 17.9677 6.73218 18.8928 6.20482 19.9437L5.31295 21.7275L5.0742 21.25L5.56295 20.2794C5.62151 20.162 5.64168 20.0292 5.62059 19.8998C5.5995 19.7703 5.53823 19.6508 5.44545 19.5581L4.82045 18.9331C4.76205 18.8747 4.69266 18.8285 4.61628 18.797C4.5399 18.7656 4.45804 18.7496 4.37545 18.75H1.87545C1.75941 18.7501 1.64568 18.7824 1.54699 18.8435C1.44831 18.9045 1.36856 18.9918 1.3167 19.0956L0.691695 20.3456C0.633988 20.4623 0.614172 20.5942 0.635013 20.7227C0.655854 20.8512 0.716312 20.97 0.807945 21.0625L1.43295 21.6875C1.49068 21.7464 1.55951 21.7933 1.63545 21.8255C1.7114 21.8577 1.79296 21.8745 1.87545 21.875H3.9892L4.2867 22.4706L2.84607 23.1875C2.74902 23.2366 2.66617 23.3098 2.60545 23.4L1.35545 25.275C1.28657 25.3787 1.25002 25.5005 1.25045 25.625V33.5912C1.25132 33.8566 1.30733 34.1188 1.41492 34.3613C1.52251 34.6038 1.67934 34.8213 1.87545 35V36.2119C1.87095 36.714 2.06583 37.1975 2.41734 37.5562C2.76885 37.9148 3.24829 38.1194 3.75045 38.125H6.25045C6.66955 38.1216 7.0755 37.9783 7.40387 37.7179C7.73224 37.4575 7.96421 37.0948 8.06295 36.6875L9.93795 36.875C9.9592 36.875 9.97983 36.8781 10.0005 36.8781C10.0851 36.8782 10.1689 36.861 10.2467 36.8275L12.2786 35.9569L12.5661 36.5325C12.6184 36.6358 12.6985 36.7225 12.7972 36.783C12.896 36.8435 13.0096 36.8753 13.1255 36.875H26.8755C26.9921 36.8756 27.1067 36.8436 27.2061 36.7825C27.3055 36.7214 27.3858 36.6337 27.438 36.5294L27.7255 35.9537L29.7573 36.8244C29.8341 36.8575 29.9168 36.8747 30.0005 36.875C30.0211 36.875 30.0417 36.875 30.063 36.8719L31.9292 36.6844C32.0224 37.0965 32.2539 37.4643 32.5853 37.7264C32.9167 37.9886 33.3279 38.1292 33.7505 38.125H36.2505C36.7526 38.1194 37.2321 37.9148 37.5836 37.5562C37.9351 37.1975 38.13 36.714 38.1255 36.2119V35C38.3217 34.8214 38.4786 34.6039 38.5862 34.3614C38.6938 34.1188 38.7497 33.8566 38.7505 33.5912V25.625C38.7503 25.5016 38.7138 25.3809 38.6455 25.2781L37.3955 23.4031C37.3348 23.3129 37.2519 23.2397 37.1549 23.1906L35.7174 22.4706L36.0117 21.875H38.1255ZM9.17795 18.2088C10.2736 17.3293 11.6135 16.8084 13.0155 16.7169L20.0005 16.25L26.9855 16.7156C28.182 16.7958 29.3369 17.1873 30.3354 17.8515C31.3339 18.5156 32.1415 19.4293 32.678 20.5019L33.3636 21.875H6.6367L7.3242 20.5C7.76787 19.6104 8.40054 18.8284 9.17795 18.2088ZM32.8661 23.125L29.048 26.9437L24.913 28.125H22.648L21.5298 27.5625C21.4428 27.5203 21.3472 27.4989 21.2505 27.5H18.7505C18.6538 27.4989 18.5581 27.5203 18.4711 27.5625L17.353 28.125H15.088L10.963 26.9456L7.34045 23.125H32.8661ZM3.99107 20.625H2.13482L2.00982 20.5L2.25982 20H4.1167L4.2417 20.125L3.99107 20.625ZM3.25045 33.375C3.16931 33.4832 3.12545 33.6148 3.12545 33.75V34.3806L2.78545 34.1475C2.69643 34.0848 2.62397 34.0014 2.57433 33.9045C2.52468 33.8076 2.49933 33.7001 2.50045 33.5912V29.6337L4.5317 31.665L3.25045 33.375ZM6.25045 36.875H3.75045C3.57975 36.8696 3.41813 36.7968 3.30099 36.6725C3.18385 36.5482 3.12073 36.3826 3.12545 36.2119V35.8994L3.25045 35.9837C3.29984 36.0571 3.36451 36.1188 3.44003 36.1648C3.51555 36.2108 3.60013 36.2398 3.68795 36.25L6.7717 36.5587C6.72024 36.6526 6.64497 36.7312 6.55347 36.7867C6.46197 36.8423 6.35745 36.8727 6.25045 36.875ZM25.8717 33.8006L25.3792 34.9494L26.5717 35.4606L26.4892 35.625H13.5117L13.4292 35.4606L14.6217 34.9494L14.1292 33.8006L9.90233 35.6131L4.37545 35.0625V33.9581L5.83545 32.0106L13.0305 33.1175C13.0619 33.1225 13.0936 33.125 13.1255 33.125H26.8755C26.9071 33.125 26.9386 33.1225 26.9698 33.1175L34.1648 32.0112L35.6255 33.9581V35.0625L30.0986 35.615L25.8717 33.8006ZM36.7505 33.375L35.4686 31.6656L37.5005 29.6337V33.5912C37.5016 33.7002 37.4762 33.8078 37.4264 33.9047C37.3766 34.0016 37.304 34.0849 37.2149 34.1475L36.8755 34.3806V33.75C36.8755 33.6148 36.8316 33.4832 36.7505 33.375ZM36.2505 36.875H33.7505C33.6432 36.8724 33.5384 36.8415 33.4469 36.7854C33.3554 36.7293 33.2803 36.6501 33.2292 36.5556L36.313 36.25C36.4008 36.2399 36.4853 36.211 36.5608 36.1651C36.6364 36.1193 36.7011 36.0576 36.7505 35.9844L36.8755 35.9V36.2125C36.88 36.3831 36.8168 36.5486 36.6997 36.6727C36.5826 36.7969 36.4211 36.8696 36.2505 36.875ZM37.5005 25.8125V27.8644L34.703 30.6619L26.8273 31.875H13.1736L5.29857 30.6637L2.50045 27.8662V25.8125L3.55357 24.2325L5.66795 23.1756L10.1717 27.9256C10.2489 28.0065 10.3462 28.0656 10.4536 28.0969L14.8286 29.3469C14.8843 29.3641 14.9421 29.3735 15.0005 29.375H17.5005C17.5972 29.3761 17.6928 29.3547 17.7798 29.3125L18.898 28.75H21.103L22.2211 29.3125C22.3081 29.3547 22.4038 29.3761 22.5005 29.375H25.0005C25.0586 29.375 25.1164 29.367 25.1723 29.3512L29.5473 28.1012C29.6494 28.0718 29.7422 28.0169 29.8173 27.9419L34.5005 23.26L36.4498 24.2344L37.5005 25.8125ZM35.8842 20H37.7392L37.9892 20.5L37.8642 20.625H36.0117L35.7617 20.125L35.8842 20Z" />
    </mask>
    <path
        d="M38.1255 21.875C38.2077 21.875 38.2891 21.8587 38.365 21.8272C38.441 21.7957 38.5099 21.7495 38.568 21.6913L39.193 21.0663C39.2854 20.9735 39.3464 20.854 39.3672 20.7247C39.3881 20.5954 39.3678 20.4628 39.3092 20.3456L38.6842 19.0956C38.6324 18.9918 38.5526 18.9045 38.4539 18.8435C38.3552 18.7824 38.2415 18.7501 38.1255 18.75H35.6255C35.4597 18.75 35.3008 18.8159 35.1836 18.9331L34.5586 19.5581C34.4658 19.6508 34.4045 19.7703 34.3835 19.8998C34.3624 20.0292 34.3825 20.162 34.4411 20.2794L34.9267 21.25L34.688 21.7275L33.7961 19.9437C33.1624 18.676 32.2081 17.596 31.0279 16.8111C29.8478 16.0261 28.4828 15.5636 27.0686 15.4694L20.0417 15C20.0142 15 19.9867 15 19.9592 15L12.9323 15.4681C11.2752 15.5766 9.69151 16.1921 8.39608 17.2312C7.47951 17.9677 6.73218 18.8928 6.20482 19.9437L5.31295 21.7275L5.0742 21.25L5.56295 20.2794C5.62151 20.162 5.64168 20.0292 5.62059 19.8998C5.5995 19.7703 5.53823 19.6508 5.44545 19.5581L4.82045 18.9331C4.76205 18.8747 4.69266 18.8285 4.61628 18.797C4.5399 18.7656 4.45804 18.7496 4.37545 18.75H1.87545C1.75941 18.7501 1.64568 18.7824 1.54699 18.8435C1.44831 18.9045 1.36856 18.9918 1.3167 19.0956L0.691695 20.3456C0.633988 20.4623 0.614172 20.5942 0.635013 20.7227C0.655854 20.8512 0.716312 20.97 0.807945 21.0625L1.43295 21.6875C1.49068 21.7464 1.55951 21.7933 1.63545 21.8255C1.7114 21.8577 1.79296 21.8745 1.87545 21.875H3.9892L4.2867 22.4706L2.84607 23.1875C2.74902 23.2366 2.66617 23.3098 2.60545 23.4L1.35545 25.275C1.28657 25.3787 1.25002 25.5005 1.25045 25.625V33.5912C1.25132 33.8566 1.30733 34.1188 1.41492 34.3613C1.52251 34.6038 1.67934 34.8213 1.87545 35V36.2119C1.87095 36.714 2.06583 37.1975 2.41734 37.5562C2.76885 37.9148 3.24829 38.1194 3.75045 38.125H6.25045C6.66955 38.1216 7.0755 37.9783 7.40387 37.7179C7.73224 37.4575 7.96421 37.0948 8.06295 36.6875L9.93795 36.875C9.9592 36.875 9.97983 36.8781 10.0005 36.8781C10.0851 36.8782 10.1689 36.861 10.2467 36.8275L12.2786 35.9569L12.5661 36.5325C12.6184 36.6358 12.6985 36.7225 12.7972 36.783C12.896 36.8435 13.0096 36.8753 13.1255 36.875H26.8755C26.9921 36.8756 27.1067 36.8436 27.2061 36.7825C27.3055 36.7214 27.3858 36.6337 27.438 36.5294L27.7255 35.9537L29.7573 36.8244C29.8341 36.8575 29.9168 36.8747 30.0005 36.875C30.0211 36.875 30.0417 36.875 30.063 36.8719L31.9292 36.6844C32.0224 37.0965 32.2539 37.4643 32.5853 37.7264C32.9167 37.9886 33.3279 38.1292 33.7505 38.125H36.2505C36.7526 38.1194 37.2321 37.9148 37.5836 37.5562C37.9351 37.1975 38.13 36.714 38.1255 36.2119V35C38.3217 34.8214 38.4786 34.6039 38.5862 34.3614C38.6938 34.1188 38.7497 33.8566 38.7505 33.5912V25.625C38.7503 25.5016 38.7138 25.3809 38.6455 25.2781L37.3955 23.4031C37.3348 23.3129 37.2519 23.2397 37.1549 23.1906L35.7174 22.4706L36.0117 21.875H38.1255ZM9.17795 18.2088C10.2736 17.3293 11.6135 16.8084 13.0155 16.7169L20.0005 16.25L26.9855 16.7156C28.182 16.7958 29.3369 17.1873 30.3354 17.8515C31.3339 18.5156 32.1415 19.4293 32.678 20.5019L33.3636 21.875H6.6367L7.3242 20.5C7.76787 19.6104 8.40054 18.8284 9.17795 18.2088ZM32.8661 23.125L29.048 26.9437L24.913 28.125H22.648L21.5298 27.5625C21.4428 27.5203 21.3472 27.4989 21.2505 27.5H18.7505C18.6538 27.4989 18.5581 27.5203 18.4711 27.5625L17.353 28.125H15.088L10.963 26.9456L7.34045 23.125H32.8661ZM3.99107 20.625H2.13482L2.00982 20.5L2.25982 20H4.1167L4.2417 20.125L3.99107 20.625ZM3.25045 33.375C3.16931 33.4832 3.12545 33.6148 3.12545 33.75V34.3806L2.78545 34.1475C2.69643 34.0848 2.62397 34.0014 2.57433 33.9045C2.52468 33.8076 2.49933 33.7001 2.50045 33.5912V29.6337L4.5317 31.665L3.25045 33.375ZM6.25045 36.875H3.75045C3.57975 36.8696 3.41813 36.7968 3.30099 36.6725C3.18385 36.5482 3.12073 36.3826 3.12545 36.2119V35.8994L3.25045 35.9837C3.29984 36.0571 3.36451 36.1188 3.44003 36.1648C3.51555 36.2108 3.60013 36.2398 3.68795 36.25L6.7717 36.5587C6.72024 36.6526 6.64497 36.7312 6.55347 36.7867C6.46197 36.8423 6.35745 36.8727 6.25045 36.875ZM25.8717 33.8006L25.3792 34.9494L26.5717 35.4606L26.4892 35.625H13.5117L13.4292 35.4606L14.6217 34.9494L14.1292 33.8006L9.90233 35.6131L4.37545 35.0625V33.9581L5.83545 32.0106L13.0305 33.1175C13.0619 33.1225 13.0936 33.125 13.1255 33.125H26.8755C26.9071 33.125 26.9386 33.1225 26.9698 33.1175L34.1648 32.0112L35.6255 33.9581V35.0625L30.0986 35.615L25.8717 33.8006ZM36.7505 33.375L35.4686 31.6656L37.5005 29.6337V33.5912C37.5016 33.7002 37.4762 33.8078 37.4264 33.9047C37.3766 34.0016 37.304 34.0849 37.2149 34.1475L36.8755 34.3806V33.75C36.8755 33.6148 36.8316 33.4832 36.7505 33.375ZM36.2505 36.875H33.7505C33.6432 36.8724 33.5384 36.8415 33.4469 36.7854C33.3554 36.7293 33.2803 36.6501 33.2292 36.5556L36.313 36.25C36.4008 36.2399 36.4853 36.211 36.5608 36.1651C36.6364 36.1193 36.7011 36.0576 36.7505 35.9844L36.8755 35.9V36.2125C36.88 36.3831 36.8168 36.5486 36.6997 36.6727C36.5826 36.7969 36.4211 36.8696 36.2505 36.875ZM37.5005 25.8125V27.8644L34.703 30.6619L26.8273 31.875H13.1736L5.29857 30.6637L2.50045 27.8662V25.8125L3.55357 24.2325L5.66795 23.1756L10.1717 27.9256C10.2489 28.0065 10.3462 28.0656 10.4536 28.0969L14.8286 29.3469C14.8843 29.3641 14.9421 29.3735 15.0005 29.375H17.5005C17.5972 29.3761 17.6928 29.3547 17.7798 29.3125L18.898 28.75H21.103L22.2211 29.3125C22.3081 29.3547 22.4038 29.3761 22.5005 29.375H25.0005C25.0586 29.375 25.1164 29.367 25.1723 29.3512L29.5473 28.1012C29.6494 28.0718 29.7422 28.0169 29.8173 27.9419L34.5005 23.26L36.4498 24.2344L37.5005 25.8125ZM35.8842 20H37.7392L37.9892 20.5L37.8642 20.625H36.0117L35.7617 20.125L35.8842 20Z"
        fill="currentColor" />
    <path
        d="M38.1255 21.875C38.2077 21.875 38.2891 21.8587 38.365 21.8272C38.441 21.7957 38.5099 21.7495 38.568 21.6913L39.193 21.0663C39.2854 20.9735 39.3464 20.854 39.3672 20.7247C39.3881 20.5954 39.3678 20.4628 39.3092 20.3456L38.6842 19.0956C38.6324 18.9918 38.5526 18.9045 38.4539 18.8435C38.3552 18.7824 38.2415 18.7501 38.1255 18.75H35.6255C35.4597 18.75 35.3008 18.8159 35.1836 18.9331L34.5586 19.5581C34.4658 19.6508 34.4045 19.7703 34.3835 19.8998C34.3624 20.0292 34.3825 20.162 34.4411 20.2794L34.9267 21.25L34.688 21.7275L33.7961 19.9437C33.1624 18.676 32.2081 17.596 31.0279 16.8111C29.8478 16.0261 28.4828 15.5636 27.0686 15.4694L20.0417 15C20.0142 15 19.9867 15 19.9592 15L12.9323 15.4681C11.2752 15.5766 9.69151 16.1921 8.39608 17.2312C7.47951 17.9677 6.73218 18.8928 6.20482 19.9437L5.31295 21.7275L5.0742 21.25L5.56295 20.2794C5.62151 20.162 5.64168 20.0292 5.62059 19.8998C5.5995 19.7703 5.53823 19.6508 5.44545 19.5581L4.82045 18.9331C4.76205 18.8747 4.69266 18.8285 4.61628 18.797C4.5399 18.7656 4.45804 18.7496 4.37545 18.75H1.87545C1.75941 18.7501 1.64568 18.7824 1.54699 18.8435C1.44831 18.9045 1.36856 18.9918 1.3167 19.0956L0.691695 20.3456C0.633988 20.4623 0.614172 20.5942 0.635013 20.7227C0.655854 20.8512 0.716312 20.97 0.807945 21.0625L1.43295 21.6875C1.49068 21.7464 1.55951 21.7933 1.63545 21.8255C1.7114 21.8577 1.79296 21.8745 1.87545 21.875H3.9892L4.2867 22.4706L2.84607 23.1875C2.74902 23.2366 2.66617 23.3098 2.60545 23.4L1.35545 25.275C1.28657 25.3787 1.25002 25.5005 1.25045 25.625V33.5912C1.25132 33.8566 1.30733 34.1188 1.41492 34.3613C1.52251 34.6038 1.67934 34.8213 1.87545 35V36.2119C1.87095 36.714 2.06583 37.1975 2.41734 37.5562C2.76885 37.9148 3.24829 38.1194 3.75045 38.125H6.25045C6.66955 38.1216 7.0755 37.9783 7.40387 37.7179C7.73224 37.4575 7.96421 37.0948 8.06295 36.6875L9.93795 36.875C9.9592 36.875 9.97983 36.8781 10.0005 36.8781C10.0851 36.8782 10.1689 36.861 10.2467 36.8275L12.2786 35.9569L12.5661 36.5325C12.6184 36.6358 12.6985 36.7225 12.7972 36.783C12.896 36.8435 13.0096 36.8753 13.1255 36.875H26.8755C26.9921 36.8756 27.1067 36.8436 27.2061 36.7825C27.3055 36.7214 27.3858 36.6337 27.438 36.5294L27.7255 35.9537L29.7573 36.8244C29.8341 36.8575 29.9168 36.8747 30.0005 36.875C30.0211 36.875 30.0417 36.875 30.063 36.8719L31.9292 36.6844C32.0224 37.0965 32.2539 37.4643 32.5853 37.7264C32.9167 37.9886 33.3279 38.1292 33.7505 38.125H36.2505C36.7526 38.1194 37.2321 37.9148 37.5836 37.5562C37.9351 37.1975 38.13 36.714 38.1255 36.2119V35C38.3217 34.8214 38.4786 34.6039 38.5862 34.3614C38.6938 34.1188 38.7497 33.8566 38.7505 33.5912V25.625C38.7503 25.5016 38.7138 25.3809 38.6455 25.2781L37.3955 23.4031C37.3348 23.3129 37.2519 23.2397 37.1549 23.1906L35.7174 22.4706L36.0117 21.875H38.1255ZM9.17795 18.2088C10.2736 17.3293 11.6135 16.8084 13.0155 16.7169L20.0005 16.25L26.9855 16.7156C28.182 16.7958 29.3369 17.1873 30.3354 17.8515C31.3339 18.5156 32.1415 19.4293 32.678 20.5019L33.3636 21.875H6.6367L7.3242 20.5C7.76787 19.6104 8.40054 18.8284 9.17795 18.2088ZM32.8661 23.125L29.048 26.9437L24.913 28.125H22.648L21.5298 27.5625C21.4428 27.5203 21.3472 27.4989 21.2505 27.5H18.7505C18.6538 27.4989 18.5581 27.5203 18.4711 27.5625L17.353 28.125H15.088L10.963 26.9456L7.34045 23.125H32.8661ZM3.99107 20.625H2.13482L2.00982 20.5L2.25982 20H4.1167L4.2417 20.125L3.99107 20.625ZM3.25045 33.375C3.16931 33.4832 3.12545 33.6148 3.12545 33.75V34.3806L2.78545 34.1475C2.69643 34.0848 2.62397 34.0014 2.57433 33.9045C2.52468 33.8076 2.49933 33.7001 2.50045 33.5912V29.6337L4.5317 31.665L3.25045 33.375ZM6.25045 36.875H3.75045C3.57975 36.8696 3.41813 36.7968 3.30099 36.6725C3.18385 36.5482 3.12073 36.3826 3.12545 36.2119V35.8994L3.25045 35.9837C3.29984 36.0571 3.36451 36.1188 3.44003 36.1648C3.51555 36.2108 3.60013 36.2398 3.68795 36.25L6.7717 36.5587C6.72024 36.6526 6.64497 36.7312 6.55347 36.7867C6.46197 36.8423 6.35745 36.8727 6.25045 36.875ZM25.8717 33.8006L25.3792 34.9494L26.5717 35.4606L26.4892 35.625H13.5117L13.4292 35.4606L14.6217 34.9494L14.1292 33.8006L9.90233 35.6131L4.37545 35.0625V33.9581L5.83545 32.0106L13.0305 33.1175C13.0619 33.1225 13.0936 33.125 13.1255 33.125H26.8755C26.9071 33.125 26.9386 33.1225 26.9698 33.1175L34.1648 32.0112L35.6255 33.9581V35.0625L30.0986 35.615L25.8717 33.8006ZM36.7505 33.375L35.4686 31.6656L37.5005 29.6337V33.5912C37.5016 33.7002 37.4762 33.8078 37.4264 33.9047C37.3766 34.0016 37.304 34.0849 37.2149 34.1475L36.8755 34.3806V33.75C36.8755 33.6148 36.8316 33.4832 36.7505 33.375ZM36.2505 36.875H33.7505C33.6432 36.8724 33.5384 36.8415 33.4469 36.7854C33.3554 36.7293 33.2803 36.6501 33.2292 36.5556L36.313 36.25C36.4008 36.2399 36.4853 36.211 36.5608 36.1651C36.6364 36.1193 36.7011 36.0576 36.7505 35.9844L36.8755 35.9V36.2125C36.88 36.3831 36.8168 36.5486 36.6997 36.6727C36.5826 36.7969 36.4211 36.8696 36.2505 36.875ZM37.5005 25.8125V27.8644L34.703 30.6619L26.8273 31.875H13.1736L5.29857 30.6637L2.50045 27.8662V25.8125L3.55357 24.2325L5.66795 23.1756L10.1717 27.9256C10.2489 28.0065 10.3462 28.0656 10.4536 28.0969L14.8286 29.3469C14.8843 29.3641 14.9421 29.3735 15.0005 29.375H17.5005C17.5972 29.3761 17.6928 29.3547 17.7798 29.3125L18.898 28.75H21.103L22.2211 29.3125C22.3081 29.3547 22.4038 29.3761 22.5005 29.375H25.0005C25.0586 29.375 25.1164 29.367 25.1723 29.3512L29.5473 28.1012C29.6494 28.0718 29.7422 28.0169 29.8173 27.9419L34.5005 23.26L36.4498 24.2344L37.5005 25.8125ZM35.8842 20H37.7392L37.9892 20.5L37.8642 20.625H36.0117L35.7617 20.125L35.8842 20Z"
        stroke="currentColor" stroke-width="0.6" stroke-linejoin="round"
        mask="url(#path-6-outside-1_447_384)" />
    <path
        d="M19.375 29.9995C19.375 30.3447 19.6548 30.6245 20 30.6245C20.3452 30.6245 20.625 30.3447 20.625 29.9995C20.625 29.6543 20.3452 29.3745 20 29.3745C19.6548 29.3745 19.375 29.6543 19.375 29.9995Z"
        fill="currentColor" />
</svg>