<svg width="45" height="44" viewBox="0 0 45 44" fill="none" xmlns="http://www.w3.org/2000/svg">
    <circle cx="22.9688" cy="22" r="22" fill="currentColor" />
    <g clip-path="url(#clip0_447_488)">
        <path
            d="M35.1327 14.3053C34.1798 13.1725 32.4203 12.7104 29.0602 12.7104H16.863C13.426 12.7104 11.6367 13.2023 10.6873 14.4084C9.76172 15.5843 9.76172 17.3169 9.76172 19.7149V24.2854C9.76172 28.931 10.86 31.2897 16.863 31.2897H29.0603C31.9742 31.2897 33.5888 30.882 34.6334 29.8823C35.7047 28.8571 36.1617 27.1833 36.1617 24.2854V19.7149C36.1617 17.186 36.0901 15.4432 35.1327 14.3053ZM26.7106 22.6311L21.1719 25.5259C21.0481 25.5906 20.9127 25.6227 20.7774 25.6227C20.6243 25.6227 20.4715 25.5815 20.3362 25.4995C20.0814 25.3451 19.9258 25.069 19.9258 24.7711V19.0002C19.9258 18.7028 20.081 18.4269 20.3353 18.2724C20.5896 18.1179 20.906 18.1074 21.1699 18.2445L26.7086 21.1206C26.9904 21.2669 27.1674 21.5578 27.1678 21.8752C27.1682 22.1928 26.992 22.4842 26.7106 22.6311Z"
            fill="white" />
    </g>
    <defs>
        <clipPath id="clip0_447_488">
            <rect width="26.4" height="26.4" fill="white" transform="translate(9.76172 8.80029)" />
        </clipPath>
    </defs>
</svg>