<svg width="40" height="40" viewBox="0 0 40 40" fill="none" xmlns="http://www.w3.org/2000/svg">
    <path
        d="M30.2091 30.9411C31.0667 29.6454 31.4125 28.0773 31.1795 26.541C30.9465 25.0048 30.1512 23.6098 28.9479 22.6267C27.7446 21.6436 26.2191 21.1424 24.6672 21.2203C23.1153 21.2982 21.6477 21.9498 20.549 23.0485C19.4502 24.1472 18.7987 25.6148 18.7208 27.1667C18.6428 28.7186 19.144 30.2441 20.1272 31.4474C21.1103 32.6507 22.5053 33.446 24.0415 33.679C25.5778 33.912 27.1459 33.5662 28.4416 32.7086L30.3666 34.6336C30.6023 34.8613 30.9181 34.9873 31.2458 34.9844C31.5736 34.9816 31.8871 34.8501 32.1189 34.6184C32.3506 34.3866 32.4821 34.0731 32.4849 33.7453C32.4878 33.4176 32.3618 33.1018 32.1341 32.8661L30.2091 30.9411ZM21.2503 27.4998C21.2503 26.7582 21.4703 26.0331 21.8823 25.4165C22.2944 24.7998 22.88 24.3191 23.5653 24.0353C24.2505 23.7515 25.0045 23.6772 25.7319 23.8219C26.4594 23.9666 27.1275 24.3237 27.652 24.8482C28.1764 25.3726 28.5336 26.0408 28.6783 26.7683C28.823 27.4957 28.7487 28.2497 28.4649 28.9349C28.1811 29.6201 27.7004 30.2058 27.0837 30.6179C26.467 31.0299 25.742 31.2498 25.0003 31.2498C24.0058 31.2498 23.0519 30.8548 22.3487 30.1515C21.6454 29.4482 21.2503 28.4944 21.2503 27.4998Z"
        fill="currentColor" />
    <path
        d="M28.75 2.5H11.25C10.2554 2.5 9.30161 2.89509 8.59835 3.59835C7.89509 4.30161 7.5 5.25544 7.5 6.25V33.75C7.5 34.7446 7.89509 35.6984 8.59835 36.4016C9.30161 37.1049 10.2554 37.5 11.25 37.5H20C20.3315 37.5 20.6495 37.3683 20.8839 37.1339C21.1183 36.8995 21.25 36.5815 21.25 36.25C21.25 35.9185 21.1183 35.6005 20.8839 35.3661C20.6495 35.1317 20.3315 35 20 35H11.25C10.9185 35 10.6005 34.8683 10.3661 34.6339C10.1317 34.3995 10 34.0815 10 33.75V6.25C10 5.91848 10.1317 5.60054 10.3661 5.36612C10.6005 5.1317 10.9185 5 11.25 5H28.75C29.0815 5 29.3995 5.1317 29.6339 5.36612C29.8683 5.60054 30 5.91848 30 6.25V20C30 20.3315 30.1317 20.6495 30.3661 20.8839C30.6005 21.1183 30.9185 21.25 31.25 21.25C31.5815 21.25 31.8995 21.1183 32.1339 20.8839C32.3683 20.6495 32.5 20.3315 32.5 20V6.25C32.5 5.25544 32.1049 4.30161 31.4017 3.59835C30.6984 2.89509 29.7446 2.5 28.75 2.5Z"
        fill="currentColor" />
    <path
        d="M15 11.25H25C25.3315 11.25 25.6495 11.1183 25.8839 10.8839C26.1183 10.6495 26.25 10.3315 26.25 10C26.25 9.66848 26.1183 9.35054 25.8839 9.11612C25.6495 8.8817 25.3315 8.75 25 8.75H15C14.6685 8.75 14.3505 8.8817 14.1161 9.11612C13.8817 9.35054 13.75 9.66848 13.75 10C13.75 10.3315 13.8817 10.6495 14.1161 10.8839C14.3505 11.1183 14.6685 11.25 15 11.25Z"
        fill="currentColor" />
    <path
        d="M26.25 16.25C26.25 15.9185 26.1183 15.6005 25.8839 15.3661C25.6495 15.1317 25.3315 15 25 15H15C14.6685 15 14.3505 15.1317 14.1161 15.3661C13.8817 15.6005 13.75 15.9185 13.75 16.25C13.75 16.5815 13.8817 16.8995 14.1161 17.1339C14.3505 17.3683 14.6685 17.5 15 17.5H25C25.3315 17.5 25.6495 17.3683 25.8839 17.1339C26.1183 16.8995 26.25 16.5815 26.25 16.25Z"
        fill="currentColor" />
    <path
        d="M15 21.25C14.6685 21.25 14.3505 21.3817 14.1161 21.6161C13.8817 21.8505 13.75 22.1685 13.75 22.5C13.75 22.8315 13.8817 23.1495 14.1161 23.3839C14.3505 23.6183 14.6685 23.75 15 23.75H16.25C16.5815 23.75 16.8995 23.6183 17.1339 23.3839C17.3683 23.1495 17.5 22.8315 17.5 22.5C17.5 22.1685 17.3683 21.8505 17.1339 21.6161C16.8995 21.3817 16.5815 21.25 16.25 21.25H15Z"
        fill="currentColor" />
</svg>