<?xml version="1.0" encoding="utf-8"?><svg xmlns="http://www.w3.org/2000/svg" xmlns:xlink="http://www.w3.org/1999/xlink"><symbol fill="none" viewBox="0 0 14 23" id="icon_arrow" xmlns="http://www.w3.org/2000/svg"><path d="M1.5 21l9.5-9.5L1.5 2" stroke="currentColor" stroke-width="3"/></symbol><symbol fill="none" viewBox="0 0 52 52" id="icon_car" xmlns="http://www.w3.org/2000/svg"><path d="M45.813 19.5h-4.889l-1.3-3.38c-1.352-3.484-4.732-5.72-8.476-5.72H20.852a9.092 9.092 0 00-8.476 5.72l-1.352 3.38H6.136a.987.987 0 00-.988.988c0 .052 0 .156.052.208l.468 1.976c.104.416.52.728.936.728H8.32c-1.144.988-1.82 2.392-1.82 3.9v3.9c0 1.248.468 2.444 1.3 3.432V39c0 1.456 1.144 2.6 2.6 2.6H13c1.456 0 2.6-1.144 2.6-2.6v-2.6h20.8V39c0 1.456 1.144 2.6 2.6 2.6h2.6c1.456 0 2.6-1.144 2.6-2.6v-4.42a5.12 5.12 0 001.3-3.432v-3.9c0-1.508-.675-2.912-1.82-3.9h1.612a.953.953 0 00.936-.728l.468-1.976a1.04 1.04 0 00-.727-1.196c0 .052-.053.052-.157.052zm-28.6-1.456c.571-1.508 2.027-2.444 3.64-2.444h10.295c1.612 0 3.068.988 3.64 2.444L36.4 22.1H15.6l1.612-4.056zM13 31.2c-1.352.104-2.496-.936-2.6-2.288V28.6c-.104-1.352.936-2.496 2.288-2.6H13c1.56 0 3.9 2.34 3.9 3.9s-2.34 1.3-3.9 1.3zm26 0c-1.56 0-3.9.26-3.9-1.3S37.44 26 39 26c1.352-.104 2.496.936 2.6 2.288v.312c.105 1.352-.936 2.496-2.288 2.6h-.311z" fill="currentColor"/></symbol><symbol fill="none" viewBox="0 0 40 40" id="icon_cards" xmlns="http://www.w3.org/2000/svg"><mask id="ca" maskUnits="userSpaceOnUse" x="-.334" y="1" width="41" height="37" fill="#000"><path fill="#fff" d="M-.334 1h41v37h-41z"/><path d="M37.4 2H7.754a1.93 1.93 0 00-1.933 1.927v9.042c-2.674.193-5.156 1-5.156 2.522v19.273c0 1.765 3.34 2.57 6.444 2.57 2.28 0 4.683-.437 5.8-1.367 1.118.93 3.52 1.366 5.8 1.366 3.104 0 6.445-.804 6.445-2.57V24.486h12.244a1.93 1.93 0 001.934-1.927V3.928A1.93 1.93 0 0037.399 2zM7.11 3.927c0-.355.289-.642.645-.642h29.644c.356 0 .645.287.645.642v12.206h-24.49v-.642c0-1.765-3.34-2.57-6.444-2.57V3.927zm30.934 16.06H23.147a14.038 14.038 0 00-4.437-.641 12.281 12.281 0 00-5.155.948v-2.876h24.489v2.57zM23.866 31.553c0 .33-1.773 1.284-5.156 1.284-3.382 0-5.155-.954-5.155-1.284V29.96a12.284 12.284 0 005.155.948 12.285 12.285 0 005.156-.948v1.59zm0-9.637c0 .33-1.773 1.285-5.156 1.285-3.382 0-5.155-.955-5.155-1.285 0-.33 1.773-1.285 5.155-1.285 3.383 0 5.156.955 5.156 1.285zm0 3.212c0 .33-1.773 1.285-5.156 1.285-3.382 0-5.155-.954-5.155-1.285v-1.59a12.281 12.281 0 005.155.948 12.281 12.281 0 005.156-.948v1.59zm-11.6-6.424c0 .33-1.773 1.285-5.156 1.285-3.382 0-5.155-.955-5.155-1.285v-1.59a12.285 12.285 0 005.155.948 12.284 12.284 0 005.156-.949v1.591zm-5.156 2.57a12.283 12.283 0 005.156-.948v1.59c0 .33-1.773 1.285-5.156 1.285-3.382 0-5.155-.955-5.155-1.285v-1.59a12.283 12.283 0 005.155.948zm0 3.212a12.281 12.281 0 005.156-.948v1.59c0 .33-1.773 1.285-5.156 1.285-3.382 0-5.155-.954-5.155-1.285v-1.59a12.282 12.282 0 005.155.948zm0 3.212a12.283 12.283 0 005.156-.948v1.59c0 .33-1.773 1.285-5.156 1.285-3.382 0-5.155-.954-5.155-1.285v-1.59a12.283 12.283 0 005.155.948zm-5.155 2.264a12.285 12.285 0 005.155.948 12.284 12.284 0 005.156-.948v1.59c0 .33-1.773 1.285-5.156 1.285-3.382 0-5.155-.954-5.155-1.284V29.96zm21.911-1.622c0 .33-1.773 1.285-5.156 1.285-3.382 0-5.155-.954-5.155-1.285v-1.59a12.283 12.283 0 005.155.948 12.283 12.283 0 005.156-.948v1.59zM7.11 14.206c3.383 0 5.156.955 5.156 1.285 0 .33-1.773 1.285-5.156 1.285-3.382 0-5.155-.955-5.155-1.285 0-.33 1.773-1.285 5.155-1.285zm0 21.842c-3.382 0-5.155-.954-5.155-1.284v-1.591a12.285 12.285 0 005.155.948 12.284 12.284 0 005.156-.948v1.59c0 .33-1.773 1.285-5.156 1.285zm11.6 0c-3.382 0-5.155-.954-5.155-1.284v-1.591a12.284 12.284 0 005.155.948 12.285 12.285 0 005.156-.948v1.59c0 .33-1.773 1.285-5.156 1.285zM37.4 23.2H25.154v-1.285c-.001-.224-.058-.445-.166-.642h13.055v1.285a.643.643 0 01-.645.642z"/></mask><path d="M37.4 2H7.754a1.93 1.93 0 00-1.933 1.927v9.042c-2.674.193-5.156 1-5.156 2.522v19.273c0 1.765 3.34 2.57 6.444 2.57 2.28 0 4.683-.437 5.8-1.367 1.118.93 3.52 1.366 5.8 1.366 3.104 0 6.445-.804 6.445-2.57V24.486h12.244a1.93 1.93 0 001.934-1.927V3.928A1.93 1.93 0 0037.399 2zM7.11 3.927c0-.355.289-.642.645-.642h29.644c.356 0 .645.287.645.642v12.206h-24.49v-.642c0-1.765-3.34-2.57-6.444-2.57V3.927zm30.934 16.06H23.147a14.038 14.038 0 00-4.437-.641 12.281 12.281 0 00-5.155.948v-2.876h24.489v2.57zM23.866 31.553c0 .33-1.773 1.284-5.156 1.284-3.382 0-5.155-.954-5.155-1.284V29.96a12.284 12.284 0 005.155.948 12.285 12.285 0 005.156-.948v1.59zm0-9.637c0 .33-1.773 1.285-5.156 1.285-3.382 0-5.155-.955-5.155-1.285 0-.33 1.773-1.285 5.155-1.285 3.383 0 5.156.955 5.156 1.285zm0 3.212c0 .33-1.773 1.285-5.156 1.285-3.382 0-5.155-.954-5.155-1.285v-1.59a12.281 12.281 0 005.155.948 12.281 12.281 0 005.156-.948v1.59zm-11.6-6.424c0 .33-1.773 1.285-5.156 1.285-3.382 0-5.155-.955-5.155-1.285v-1.59a12.285 12.285 0 005.155.948 12.284 12.284 0 005.156-.949v1.591zm-5.156 2.57a12.283 12.283 0 005.156-.948v1.59c0 .33-1.773 1.285-5.156 1.285-3.382 0-5.155-.955-5.155-1.285v-1.59a12.283 12.283 0 005.155.948zm0 3.212a12.281 12.281 0 005.156-.948v1.59c0 .33-1.773 1.285-5.156 1.285-3.382 0-5.155-.954-5.155-1.285v-1.59a12.282 12.282 0 005.155.948zm0 3.212a12.283 12.283 0 005.156-.948v1.59c0 .33-1.773 1.285-5.156 1.285-3.382 0-5.155-.954-5.155-1.285v-1.59a12.283 12.283 0 005.155.948zm-5.155 2.264a12.285 12.285 0 005.155.948 12.284 12.284 0 005.156-.948v1.59c0 .33-1.773 1.285-5.156 1.285-3.382 0-5.155-.954-5.155-1.284V29.96zm21.911-1.622c0 .33-1.773 1.285-5.156 1.285-3.382 0-5.155-.954-5.155-1.285v-1.59a12.283 12.283 0 005.155.948 12.283 12.283 0 005.156-.948v1.59zM7.11 14.206c3.383 0 5.156.955 5.156 1.285 0 .33-1.773 1.285-5.156 1.285-3.382 0-5.155-.955-5.155-1.285 0-.33 1.773-1.285 5.155-1.285zm0 21.842c-3.382 0-5.155-.954-5.155-1.284v-1.591a12.285 12.285 0 005.155.948 12.284 12.284 0 005.156-.948v1.59c0 .33-1.773 1.285-5.156 1.285zm11.6 0c-3.382 0-5.155-.954-5.155-1.284v-1.591a12.284 12.284 0 005.155.948 12.285 12.285 0 005.156-.948v1.59c0 .33-1.773 1.285-5.156 1.285zM37.4 23.2H25.154v-1.285c-.001-.224-.058-.445-.166-.642h13.055v1.285a.643.643 0 01-.645.642z" fill="currentColor"/><path d="M37.4 2H7.754a1.93 1.93 0 00-1.933 1.927v9.042c-2.674.193-5.156 1-5.156 2.522v19.273c0 1.765 3.34 2.57 6.444 2.57 2.28 0 4.683-.437 5.8-1.367 1.118.93 3.52 1.366 5.8 1.366 3.104 0 6.445-.804 6.445-2.57V24.486h12.244a1.93 1.93 0 001.934-1.927V3.928A1.93 1.93 0 0037.399 2zM7.11 3.927c0-.355.289-.642.645-.642h29.644c.356 0 .645.287.645.642v12.206h-24.49v-.642c0-1.765-3.34-2.57-6.444-2.57V3.927zm30.934 16.06H23.147a14.038 14.038 0 00-4.437-.641 12.281 12.281 0 00-5.155.948v-2.876h24.489v2.57zM23.866 31.553c0 .33-1.773 1.284-5.156 1.284-3.382 0-5.155-.954-5.155-1.284V29.96a12.284 12.284 0 005.155.948 12.285 12.285 0 005.156-.948v1.59zm0-9.637c0 .33-1.773 1.285-5.156 1.285-3.382 0-5.155-.955-5.155-1.285 0-.33 1.773-1.285 5.155-1.285 3.383 0 5.156.955 5.156 1.285zm0 3.212c0 .33-1.773 1.285-5.156 1.285-3.382 0-5.155-.954-5.155-1.285v-1.59a12.281 12.281 0 005.155.948 12.281 12.281 0 005.156-.948v1.59zm-11.6-6.424c0 .33-1.773 1.285-5.156 1.285-3.382 0-5.155-.955-5.155-1.285v-1.59a12.285 12.285 0 005.155.948 12.284 12.284 0 005.156-.949v1.591zm-5.156 2.57a12.283 12.283 0 005.156-.948v1.59c0 .33-1.773 1.285-5.156 1.285-3.382 0-5.155-.955-5.155-1.285v-1.59a12.283 12.283 0 005.155.948zm0 3.212a12.281 12.281 0 005.156-.948v1.59c0 .33-1.773 1.285-5.156 1.285-3.382 0-5.155-.954-5.155-1.285v-1.59a12.282 12.282 0 005.155.948zm0 3.212a12.283 12.283 0 005.156-.948v1.59c0 .33-1.773 1.285-5.156 1.285-3.382 0-5.155-.954-5.155-1.285v-1.59a12.283 12.283 0 005.155.948zm-5.155 2.264a12.285 12.285 0 005.155.948 12.284 12.284 0 005.156-.948v1.59c0 .33-1.773 1.285-5.156 1.285-3.382 0-5.155-.954-5.155-1.284V29.96zm21.911-1.622c0 .33-1.773 1.285-5.156 1.285-3.382 0-5.155-.954-5.155-1.285v-1.59a12.283 12.283 0 005.155.948 12.283 12.283 0 005.156-.948v1.59zM7.11 14.206c3.383 0 5.156.955 5.156 1.285 0 .33-1.773 1.285-5.156 1.285-3.382 0-5.155-.955-5.155-1.285 0-.33 1.773-1.285 5.155-1.285zm0 21.842c-3.382 0-5.155-.954-5.155-1.284v-1.591a12.285 12.285 0 005.155.948 12.284 12.284 0 005.156-.948v1.59c0 .33-1.773 1.285-5.156 1.285zm11.6 0c-3.382 0-5.155-.954-5.155-1.284v-1.591a12.284 12.284 0 005.155.948 12.285 12.285 0 005.156-.948v1.59c0 .33-1.773 1.285-5.156 1.285zM37.4 23.2H25.154v-1.285c-.001-.224-.058-.445-.166-.642h13.055v1.285a.643.643 0 01-.645.642z" stroke="currentColor" stroke-width=".8" mask="url(#ca)"/><path d="M33.332 4.8a3.533 3.533 0 010 7.066h0a3.496 3.496 0 01-1.993-.634 3.53 3.53 0 01-5.38-1.826 3.534 3.534 0 015.38-3.973A3.498 3.498 0 0133.33 4.8h.001zm0 1.733a1.8 1.8 0 100 3.6 1.8 1.8 0 000-3.6zm-4 0a1.796 1.796 0 10.852 3.374 3.42 3.42 0 010-3.15 1.784 1.784 0 00-.853-.224z" fill="currentColor" stroke="currentColor" stroke-width=".4"/><path d="M16.665 12.7a.967.967 0 010 1.934h-.666a.967.967 0 010-1.934h.666zM19.999 12.7a.967.967 0 010 1.934h-.666a.967.967 0 010-1.934h.666zM23.333 12.7a.967.967 0 010 1.934h-.666a.967.967 0 010-1.934h.666z" fill="currentColor" stroke="currentColor" stroke-width=".6"/></symbol><symbol fill="none" viewBox="0 0 40 40" id="icon_cash" xmlns="http://www.w3.org/2000/svg"><g clip-path="url(#dclip0_447_396)"><path d="M7.786 24.428c-4.29 0-7.78 3.49-7.78 7.78s3.49 7.78 7.78 7.78 7.78-3.49 7.78-7.78-3.49-7.78-7.78-7.78zm0 12.98a5.206 5.206 0 01-5.2-5.2c0-2.867 2.333-5.2 5.2-5.2s5.2 2.333 5.2 5.2c0 2.868-2.333 5.2-5.2 5.2z" fill="currentColor"/><path d="M36.044 12.174V10.4a3.874 3.874 0 00-3.87-3.87h-2.257V3.225A3.229 3.229 0 0026.692 0H17.34a3.229 3.229 0 00-3.225 3.225V6.53h-7.66a6.457 6.457 0 00-6.45 6.45v10.4a1.29 1.29 0 102.58 0v-10.4a3.874 3.874 0 013.87-3.87h7.66v3.064h-3.709a1.29 1.29 0 100 2.58h25.72c.71 0 1.29.582 1.29 1.298v20.06c0 .715-.58 1.297-1.29 1.297H21.007a1.29 1.29 0 100 2.58h15.117c2.134 0 3.87-1.74 3.87-3.878V16.052c0-2.043-1.612-3.878-3.95-3.878zm-3.87-3.064c.712 0 1.29.58 1.29 1.29v1.774h-3.547V9.11h2.258zm-4.837-5.885v8.95h-5.764V2.58h5.12c.355 0 .644.29.644.645zm-10.642 0c0-.356.29-.645.645-.645h1.653v9.594h-2.298v-8.95z" fill="currentColor"/><path d="M34.272 26.324a2.462 2.462 0 00-2.46-2.46 2.462 2.462 0 00-2.459 2.46 2.462 2.462 0 002.46 2.459 2.462 2.462 0 002.459-2.46zM15.988 38.206c-.69 1.661 2.043 2.67 2.456.746.301-1.558-1.902-2.144-2.456-.746z" fill="currentColor"/><path d="M5.334 32l2 1.666 3-3" stroke="currentColor" stroke-width="3" stroke-linecap="round" stroke-linejoin="round"/></g><defs><clipPath id="dclip0_447_396"><path fill="#fff" d="M0 0h40v40H0z"/></clipPath></defs></symbol><symbol fill="none" viewBox="0 0 36 36" id="icon_confirm" xmlns="http://www.w3.org/2000/svg"><g clip-path="url(#eclip0_470_2039)"><path d="M18 0a18 18 0 100 36 18 18 0 000-36zm10.217 14.827l-10.8 9.9a1.8 1.8 0 01-2.49-.054l-5.4-5.4a1.8 1.8 0 112.546-2.546l4.181 4.182 9.53-8.736a1.8 1.8 0 012.433 2.654z" fill="currentColor"/></g><defs><clipPath id="eclip0_470_2039"><path fill="#fff" d="M0 0h36v36H0z"/></clipPath></defs></symbol><symbol fill="none" viewBox="0 0 52 52" id="icon_delivery" xmlns="http://www.w3.org/2000/svg"><g clip-path="url(#fclip0_447_443)"><g clip-path="url(#fclip1_447_443)" fill="currentColor"><path d="M15.477 10.31l1.408 1.402V6.787h-4.26v4.925l1.408-1.403a1.023 1.023 0 011.444 0z"/><path d="M26.072 7.81c0-.564-.45-1.023-1.023-1.023H18.93v7.386a1.01 1.01 0 01-1.023 1.023c-.266 0-.522-.103-.727-.297l-2.424-2.424-2.435 2.424a1.02 1.02 0 01-1.115.224 1.029 1.029 0 01-.624-.95V6.787H4.455c-.563 0-1.023.459-1.023 1.023v11.447h8.511l-.47-.471a1.02 1.02 0 011.443-1.442l2.22 2.21a1.02 1.02 0 01.225 1.115 1.473 1.473 0 01-.226.337l-2.22 2.21a.982.982 0 01-.716.297.988.988 0 01-.726-.296 1.02 1.02 0 010-1.444l.47-.47H3.432v6.753h22.64V7.81zM47.26 30.102H2.47c-.562 0-1.023.459-1.023 1.023v8.142c0 .563.46 1.023 1.023 1.023h3.305a6.968 6.968 0 016.967-6.967c3.836 0 6.967 3.12 6.967 6.967h12.593a6.968 6.968 0 016.967-6.967c3.837 0 6.967 3.12 6.967 6.967h3.294a1.02 1.02 0 001.023-1.023v-5.862a3.3 3.3 0 00-3.294-3.303zM48.016 18.632c0-.225-.071-.44-.204-.624l-4.962-6.486a1.018 1.018 0 00-.808-.41H28.906c-.563 0-1.023.461-1.023 1.024v15.918h20.133v-9.422zm-4.552 2.824c0 .562-.46 1.023-1.023 1.023h-8.983c-.562 0-1.023-.46-1.023-1.023v-5.78c0-.573.46-1.024 1.023-1.024h6.323c.327 0 .624.144.818.4l2.65 3.478a.983.983 0 01.215.624v2.302z"/><path d="M39.267 35.367a4.923 4.923 0 10.002 9.846 4.923 4.923 0 00-.002-9.846zM13.879 45.065a4.922 4.922 0 10-2.265-9.58 4.922 4.922 0 002.265 9.58z"/></g></g><defs><clipPath id="fclip0_447_443"><path fill="#fff" d="M0 0h52v52H0z"/></clipPath><clipPath id="fclip1_447_443"><path fill="#fff" d="M0 0h52v52H0z"/></clipPath></defs></symbol><symbol fill="none" viewBox="0 0 40 40" id="icon_docs" xmlns="http://www.w3.org/2000/svg"><g clip-path="url(#gclip0_447_402)" fill="currentColor"><path d="M39.978 17.47l-.002-1.742c-.002-1.648-1.36-2.993-3.026-2.997h-.008c-.812 0-1.574.314-2.145.884a2.951 2.951 0 00-.873 2.106l.023 20.338c0 .23.068.456.196.648l1.843 2.77c.216.326.58.522.972.523h.003c.39 0 .755-.194.972-.517l1.866-2.771c.13-.194.2-.422.2-.656l-.021-18.585zm-3.71-1.752c0-.166.065-.324.186-.444a.686.686 0 01.489-.2h.002c.378.002.687.296.687.657l.001.784H36.27l-.001-.797zm.003 3.141h1.365l.014 12.734h-1.365l-.014-12.734zm.696 17.862l-.677-1.018-.002-1.766h1.365l.002 1.763-.688 1.021zM27.713 0H3.516A3.52 3.52 0 000 3.516v32.968A3.52 3.52 0 003.516 40h24.197a3.52 3.52 0 003.515-3.516V3.516A3.52 3.52 0 0027.713 0zm1.172 36.484c0 .646-.526 1.172-1.172 1.172H3.516a1.173 1.173 0 01-1.172-1.172V3.516c0-.647.525-1.172 1.172-1.172h24.197c.646 0 1.172.525 1.172 1.172v32.968z"/><path d="M24.572 6.616H6.66a1.172 1.172 0 000 2.343h17.912a1.172 1.172 0 000-2.343zM24.572 11.67H6.66a1.172 1.172 0 000 2.344h17.912a1.172 1.172 0 000-2.344zM24.572 16.726H6.66a1.172 1.172 0 000 2.343h17.912a1.172 1.172 0 000-2.343zM17.71 21.78H6.66a1.172 1.172 0 000 2.344h11.05a1.172 1.172 0 000-2.344zM21.723 25.436c-2.86 0-5.186 2.293-5.186 5.11 0 2.818 2.326 5.11 5.186 5.11 2.859 0 5.185-2.292 5.185-5.11 0-2.817-2.326-5.11-5.185-5.11zm0 7.876c-1.567 0-2.842-1.24-2.842-2.766 0-1.525 1.275-2.766 2.842-2.766 1.567 0 2.841 1.241 2.841 2.766 0 1.526-1.274 2.766-2.841 2.766z"/></g><defs><clipPath id="gclip0_447_402"><path fill="#fff" d="M0 0h40v40H0z"/></clipPath></defs></symbol><symbol fill="none" viewBox="0 0 24 24" id="icon_download" xmlns="http://www.w3.org/2000/svg"><path d="M21 15v4a2 2 0 01-2 2H5a2 2 0 01-2-2v-4M7 10l5 5 5-5M12 15V3" stroke="currentColor" stroke-width="2" stroke-linecap="round" stroke-linejoin="round"/></symbol><symbol fill="none" viewBox="0 0 52 52" id="icon_guarantee" xmlns="http://www.w3.org/2000/svg"><g clip-path="url(#iclip0_447_436)"><g clip-path="url(#iclip1_447_436)" fill="currentColor"><path d="M22.211 41.56a6.27 6.27 0 01-4.036-.082 6.268 6.268 0 01-3.145-2.531 6.267 6.267 0 01-4.152-1.812L7.48 44.243a1.543 1.543 0 001.733 2.17l6.809-1.544 3.076 6.268c.26.528.797.863 1.385.863h.008a1.542 1.542 0 001.384-.878l3.948-8.263a6.268 6.268 0 01-3.613-1.299zM40.802 37.489a6.268 6.268 0 01-3.765 1.457 6.264 6.264 0 01-3.145 2.532 6.265 6.265 0 01-4.037.082 6.268 6.268 0 01-3.613 1.3l3.948 8.262c.255.534.793.875 1.385.878h.008c.588 0 1.125-.335 1.385-.863l3.076-6.268 6.808 1.544a1.541 1.541 0 001.734-2.17l-3.398-7.108c-.123.123-.252.24-.386.354zM44.995 18.94a3.18 3.18 0 00.625-2.505 3.18 3.18 0 00-1.444-2.14 1.542 1.542 0 01-.65-1.784c.278-.854.18-1.79-.269-2.567a3.179 3.179 0 00-2.088-1.516 1.543 1.543 0 01-1.22-1.455 3.18 3.18 0 00-1.131-2.32 3.179 3.179 0 00-2.482-.71c-.7.098-1.379-.294-1.644-.95a3.178 3.178 0 00-1.857-1.794 3.178 3.178 0 00-2.574.181 1.544 1.544 0 01-1.87-.33A3.178 3.178 0 0026.032 0c-.897 0-1.756.383-2.357 1.05a1.544 1.544 0 01-1.87.33 3.178 3.178 0 00-2.575-.18c-.843.306-1.52.96-1.857 1.793a1.542 1.542 0 01-1.644.95 3.18 3.18 0 00-2.482.71 3.178 3.178 0 00-1.13 2.32 1.543 1.543 0 01-1.22 1.455c-.88.187-1.64.74-2.09 1.516a3.178 3.178 0 00-.269 2.567c.219.674-.049 1.41-.649 1.785a3.178 3.178 0 00-1.444 2.14 3.18 3.18 0 00.626 2.504 1.543 1.543 0 010 1.898 3.18 3.18 0 00-.626 2.505 3.18 3.18 0 001.444 2.14c.6.375.868 1.11.65 1.784-.278.854-.18 1.79.269 2.567a3.18 3.18 0 002.088 1.516 1.543 1.543 0 011.22 1.455 3.179 3.179 0 001.132 2.32 3.179 3.179 0 002.481.71 1.543 1.543 0 011.645.95 3.18 3.18 0 001.856 1.794 3.18 3.18 0 002.574-.181 1.542 1.542 0 011.87.33 3.178 3.178 0 002.358 1.05 3.18 3.18 0 002.358-1.05 1.543 1.543 0 011.87-.33 3.178 3.178 0 002.575.18 3.179 3.179 0 001.856-1.793 1.543 1.543 0 011.645-.95 3.18 3.18 0 002.48-.71 3.18 3.18 0 001.132-2.32 1.542 1.542 0 011.22-1.455 3.18 3.18 0 002.089-1.517 3.18 3.18 0 00.269-2.566c-.219-.674.049-1.41.65-1.785a3.18 3.18 0 001.443-2.139 3.18 3.18 0 00-.625-2.505 1.543 1.543 0 010-1.899zM26.033 33.407c-7.454 0-13.519-6.065-13.519-13.519S18.58 6.37 26.034 6.37c7.453 0 13.517 6.065 13.517 13.52 0 7.453-6.064 13.518-13.518 13.518z"/><path d="M26.033 9.456c-5.753 0-10.433 4.68-10.433 10.433s4.68 10.433 10.433 10.433 10.432-4.68 10.432-10.433-4.68-10.433-10.432-10.433zm-6.517 8.52a1.543 1.543 0 012.182 0l3.075 3.074 5.594-5.595a1.543 1.543 0 112.182 2.182l-6.685 6.686a1.543 1.543 0 01-2.182 0l-4.165-4.166a1.542 1.542 0 010-2.182z"/></g></g><defs><clipPath id="iclip0_447_436"><path fill="#fff" d="M0 0h52v52H0z"/></clipPath><clipPath id="iclip1_447_436"><path fill="#fff" d="M0 0h52v52H0z"/></clipPath></defs></symbol><symbol fill="none" viewBox="0 0 24 24" id="icon_phone" xmlns="http://www.w3.org/2000/svg"><path d="M24 18.954c0 .307-.057.708-.17 1.202-.114.495-.233.884-.358 1.168-.239.568-.932 1.17-2.08 1.807-1.068.58-2.125.869-3.17.869-.307 0-.606-.02-.895-.06-.29-.04-.617-.11-.98-.213a13.939 13.939 0 01-.81-.247 68.2 68.2 0 01-.946-.35c-.455-.17-.733-.272-.835-.306a15.444 15.444 0 01-2.983-1.415c-1.455-.898-2.958-2.122-4.509-3.673-1.55-1.551-2.775-3.054-3.673-4.509a15.436 15.436 0 01-1.415-2.983c-.034-.102-.136-.38-.307-.835a67.14 67.14 0 01-.35-.946 13.896 13.896 0 01-.246-.81 7.368 7.368 0 01-.213-.98C.02 6.383 0 6.085 0 5.778c0-1.045.29-2.102.87-3.17C1.505 1.46 2.107.767 2.675.528 2.96.403 3.35.284 3.844.17 4.338.057 4.739 0 5.045 0c.16 0 .279.017.358.051.205.068.506.5.904 1.296.125.216.295.522.511.92.216.398.415.759.597 1.082.182.324.358.628.528.912.034.046.134.188.298.426.165.24.287.44.367.606.08.164.12.326.12.485 0 .228-.163.512-.487.853a8.31 8.31 0 01-1.056.937c-.381.284-.733.585-1.057.904-.324.318-.486.58-.486.784 0 .102.028.23.085.383.057.154.105.27.145.35.04.08.12.215.239.409.12.193.184.3.196.324.863 1.556 1.852 2.892 2.966 4.005 1.113 1.114 2.449 2.102 4.005 2.966.023.011.131.077.324.196.194.12.33.2.41.239.079.04.195.088.349.145.153.056.281.085.383.085.205 0 .466-.162.784-.486.319-.324.62-.676.904-1.057.284-.38.596-.733.937-1.057.341-.323.625-.485.853-.485.159 0 .32.04.485.119.165.08.367.202.605.367.24.164.381.264.427.298.284.17.588.346.912.528.323.182.684.38 1.082.597.398.216.704.386.92.511.796.398 1.228.699 1.296.904.034.08.051.198.051.357z" fill="currentColor"/></symbol><symbol fill="none" viewBox="0 0 52 52" id="icon_road" xmlns="http://www.w3.org/2000/svg"><g clip-path="url(#kclip0_447_474)"><g clip-path="url(#kclip1_447_474)"><g clip-path="url(#kclip2_447_474)" fill="currentColor"><path d="M19.046 0a3.656 3.656 0 00-3.484 2.534L1.042 47.191a3.688 3.688 0 00.522 3.298A3.626 3.626 0 004.527 52h2.956L19.309 0h-.263zM27.493 0v4.84a1.523 1.523 0 01-3.047 0V0h-2.012L10.607 52H24.44v-4.84a1.523 1.523 0 013.047 0V52H42.37L30.543 0h-3.05zm-3.056 14.422v-4.13a1.523 1.523 0 013.047 0v4.13a1.523 1.523 0 01-3.047 0zm3.053 4.604v4.333a1.523 1.523 0 01-3.047 0v-4.333a1.523 1.523 0 013.047 0zm-3.05 8.938a1.523 1.523 0 013.047 0v4.333a1.523 1.523 0 01-3.047 0v-4.333zm3.053 13.372a1.523 1.523 0 11-3.047 0v-4.333a1.524 1.524 0 013.047 0v4.333zM50.974 47.256L37.368 2.6A3.646 3.646 0 0033.863 0h-.195l11.827 52h1.974a3.63 3.63 0 002.943-1.483c.7-.946.905-2.135.562-3.261z"/></g></g></g><defs><clipPath id="kclip0_447_474"><path fill="#fff" d="M0 0h52v52H0z"/></clipPath><clipPath id="kclip1_447_474"><path fill="#fff" d="M0 0h52v52H0z"/></clipPath><clipPath id="kclip2_447_474"><path fill="#fff" d="M0 0h52v52H0z"/></clipPath></defs></symbol><symbol fill="none" viewBox="0 0 52 52" id="icon_safty" xmlns="http://www.w3.org/2000/svg"><g clip-path="url(#lclip0_447_453)"><g clip-path="url(#lclip1_447_453)" fill="currentColor"><path d="M48.007 1.884a3.066 3.066 0 00-3.54 2.504l-.43 1.917a4.807 4.807 0 00.26 2.923c.07-.008.14-.016.207-.022a8.38 8.38 0 01.796-.038c1.644 0 3.192.498 4.401 1.391l.816-5.173a3.066 3.066 0 00-2.51-3.502zM-1.445 14.627v6.094c0 .841.682 1.523 1.523 1.523h2.98v-9.141H.078c-.841 0-1.523.682-1.523 1.524zM9.153 9.372c0-.84-.684-1.523-1.524-1.523s-1.524.683-1.524 1.523v16.604c0 .84.684 1.524 1.524 1.524s1.524-.684 1.524-1.524V9.372zM19.582 32.859c2.36 0 4.485-1.73 5.983-4.87 1.326-2.78 2.057-6.444 2.057-10.315 0-3.872-.73-7.536-2.057-10.317-1.498-3.14-3.623-4.869-5.983-4.869-2.332 0-5.043 1.719-7.253 4.598-.05.065-.098.13-.147.197.007 1.16 0 20.782 0 20.782l.147.197c2.21 2.878 4.921 4.597 7.253 4.597z"/><path d="M44.794 12.239c-2.08.198-3.908 1.39-5.434 3.54-.967 1.361-1.804 3.087-2.56 5.277-1.959 5.676-2.21 11.77-.69 16.719.057.184.117.368.179.55-3.356-1.154-7.194-1.926-11.03-2.202-4.803-.346-9.21.079-12.746 1.228-2.452.796-3.873 3.36-3.236 5.837.01.041.023.082.037.123l2.035 5.828c.214.611.79 1.021 1.439 1.021h29.086c.73 0 1.359-.519 1.496-1.237l1-5.22c.011-.059.018-.117.022-.176a4.556 4.556 0 01-3.227 1.337c-2.52 0-4.57-2.05-4.57-4.57 0-2.52 2.05-4.571 4.57-4.571 1.724 0 3.229.96 4.007 2.374l3.934-21.92c.184-1.055-.087-2.037-.76-2.764-.806-.871-2.133-1.31-3.552-1.174z"/><path d="M41.164 41.818a1.524 1.524 0 100-3.047 1.524 1.524 0 000 3.047z"/></g></g><defs><clipPath id="lclip0_447_453"><path fill="#fff" d="M0 0h52v52H0z"/></clipPath><clipPath id="lclip1_447_453"><path fill="#fff" transform="translate(-1.445)" d="M0 0h52v52H0z"/></clipPath></defs></symbol><symbol fill="none" viewBox="0 0 40 40" id="icon_search" xmlns="http://www.w3.org/2000/svg"><path d="M30.21 30.941a6.269 6.269 0 10-1.768 1.768l1.925 1.925a1.25 1.25 0 001.767-1.768l-1.925-1.925zM21.25 27.5a3.75 3.75 0 117.5 0 3.75 3.75 0 01-7.5 0z" fill="currentColor"/><path d="M28.75 2.5h-17.5A3.75 3.75 0 007.5 6.25v27.5a3.75 3.75 0 003.75 3.75H20a1.25 1.25 0 000-2.5h-8.75A1.25 1.25 0 0110 33.75V6.25A1.25 1.25 0 0111.25 5h17.5A1.25 1.25 0 0130 6.25V20a1.25 1.25 0 002.5 0V6.25a3.75 3.75 0 00-3.75-3.75z" fill="currentColor"/><path d="M15 11.25h10a1.25 1.25 0 000-2.5H15a1.25 1.25 0 000 2.5zM26.25 16.25A1.25 1.25 0 0025 15H15a1.25 1.25 0 000 2.5h10a1.25 1.25 0 001.25-1.25zM15 21.25a1.25 1.25 0 000 2.5h1.25a1.25 1.25 0 000-2.5H15z" fill="currentColor"/></symbol><symbol fill="none" viewBox="0 0 40 40" id="icon_shield" xmlns="http://www.w3.org/2000/svg"><g clip-path="url(#nclip0_447_392)" fill="currentColor"><path d="M34.063 4.688h-2.746c-3.855 0-7.678-1.612-10.488-4.423a1.171 1.171 0 00-1.657 0c-2.811 2.81-6.634 4.423-10.489 4.423H5.938c-.648 0-1.172.524-1.172 1.171v14.063c0 4.69 1.47 8.653 4.496 12.114 2.535 2.9 5.732 4.918 8.3 6.54.638.403 1.24.783 1.788 1.15a1.171 1.171 0 001.3 0c.53-.355 1.122-.727 1.748-1.121 5.111-3.223 12.836-8.092 12.836-18.683V5.859c0-.647-.524-1.171-1.171-1.171zM32.89 19.922c0 9.298-6.787 13.576-11.743 16.7-.397.25-.78.491-1.148.728-.38-.245-.776-.496-1.186-.755-4.94-3.12-11.705-7.393-11.705-16.673V7.032h1.574c4.103 0 8.167-1.568 11.317-4.333 3.15 2.765 7.214 4.332 11.317 4.332h1.574v12.89z"/><path d="M20 9.375c-5.815 0-10.547 4.731-10.547 10.547 0 5.815 4.732 10.547 10.547 10.547s10.547-4.732 10.547-10.547c0-5.816-4.731-10.547-10.547-10.547zm0 18.75c-4.523 0-8.203-3.68-8.203-8.203s3.68-8.203 8.203-8.203 8.203 3.68 8.203 8.203-3.68 8.203-8.203 8.203z"/><path d="M23.859 16.75l-5.03 5.03-2.688-2.687a1.171 1.171 0 10-1.657 1.657L18 24.267a1.167 1.167 0 001.657 0l5.86-5.86a1.172 1.172 0 10-1.658-1.656z"/></g><defs><clipPath id="nclip0_447_392"><path fill="#fff" d="M0 0h40v40H0z"/></clipPath></defs></symbol><symbol fill="none" viewBox="0 0 52 52" id="icon_speed" xmlns="http://www.w3.org/2000/svg"><g clip-path="url(#oclip0_447_462)"><g clip-path="url(#oclip1_447_462)"><g clip-path="url(#oclip2_447_462)" fill-rule="evenodd" clip-rule="evenodd" fill="currentColor"><path d="M51.959 35.533v-.201c0-1.273-.943-2.309-2.203-2.486l-.563-.078v1.801c0 .53.435.964.964.964h1.802z"/><path d="M5.714 42.605c-.645 0-1.206-.56-1.202-1.206l.041-7.317v-10.92c0-.827.675-1.502 1.502-1.502H21.67c.238.81.552 1.597.938 2.354l.322.63h11.902l2.573 6.403L48.04 32.54v2.03c0 1.166.953 2.118 2.12 2.118H52v4.87a1.07 1.07 0 01-1.043 1.047h-1.423a5.335 5.335 0 00-10.668 0H17.599a5.335 5.335 0 00-10.668 0H5.714zM25.51 35.24c-.762 0-.762 1.157 0 1.157h1.724c.761 0 .761-1.157 0-1.157H25.51zM9.93 32.79v-7.264h5.805v7.264H9.93zm7.83-7.264h5.083v7.264h-5.082v-7.264zm7.109 0h5.516l2.257 7.264H24.87v-7.264zM3.353 27.75H2.3A2.306 2.306 0 000 30.049v4.388a2.306 2.306 0 002.299 2.299h1.054V27.75z"/><path d="M12.265 38.427a4.179 4.179 0 110 8.357 4.179 4.179 0 010-8.357zm0 2.785a1.393 1.393 0 110 2.787 1.393 1.393 0 010-2.787zM44.2 38.427a4.179 4.179 0 110 8.357 4.179 4.179 0 010-8.357zm0 2.785a1.394 1.394 0 110 2.787 1.394 1.394 0 010-2.787zM35.418 5.217c1.87.084 3.635.578 5.206 1.393l-1.65 2.856a.575.575 0 10.998.573l1.647-2.853a12.64 12.64 0 013.813 3.812l-2.854 1.647a.575.575 0 10.573.998l2.857-1.65a12.498 12.498 0 011.393 5.206h-3.297a.578.578 0 000 1.156h3.297a12.503 12.503 0 01-1.356 5.133h-22.41a12.503 12.503 0 01-1.356-5.133h3.297a.578.578 0 100-1.156H22.28c.085-1.87.578-3.635 1.393-5.206l2.857 1.65a.575.575 0 00.573-.998l-2.853-1.647a12.644 12.644 0 013.812-3.813l1.648 2.854a.575.575 0 10.997-.573l-1.649-2.857a12.504 12.504 0 015.206-1.393v3.297a.578.578 0 001.155 0V5.217zm-2.082 13.51l-.585-6.975 2.98 6.333a1.714 1.714 0 01-.89 3.18 1.715 1.715 0 01-1.505-2.538z"/></g></g></g><defs><clipPath id="oclip0_447_462"><path fill="#fff" d="M0 0h52v52H0z"/></clipPath><clipPath id="oclip1_447_462"><path fill="#fff" d="M0 0h52v52H0z"/></clipPath><clipPath id="oclip2_447_462"><path fill="#fff" d="M0 0h52v52H0z"/></clipPath></defs></symbol><symbol fill="none" viewBox="0 0 45 44" id="icon_tg" xmlns="http://www.w3.org/2000/svg"><g clip-path="url(#pclip0_447_482)"><path fill-rule="evenodd" clip-rule="evenodd" d="M23 44c12.15 0 22-9.85 22-22S35.15 0 23 0 1 9.85 1 22s9.85 22 22 22zm9.67-29.945c.17-1.927-1.866-1.133-1.866-1.133-1.502.622-3.052 1.254-4.618 1.893-4.858 1.981-9.876 4.028-14.15 6.043-2.318.85-.961 1.7-.961 1.7l3.674 1.134c1.696.51 2.6-.057 2.6-.057l7.915-5.385c2.827-1.927 2.148-.34 1.47.34l-5.936 5.669c-.904.793-.452 1.474-.056 1.814 1.121.99 3.88 2.8 5.085 3.59.313.206.521.342.568.378.282.226 1.809 1.247 2.827 1.02 1.017-.227 1.13-1.53 1.13-1.53l1.357-8.9c.203-1.545.437-3.03.623-4.216.176-1.12.31-1.974.338-2.36z" fill="currentColor"/></g><defs><clipPath id="pclip0_447_482"><path fill="#fff" transform="translate(.969)" d="M0 0h44v44H0z"/></clipPath></defs></symbol><symbol fill="none" viewBox="0 0 40 40" id="icon_wash" xmlns="http://www.w3.org/2000/svg"><path d="M9.297 13.757c.086.334.358.618.703.618s.617-.284.703-.618a2.501 2.501 0 011.804-1.804c.334-.086.618-.358.618-.703s-.284-.617-.618-.703a2.501 2.501 0 01-1.804-1.803c-.086-.335-.358-.619-.703-.619s-.617.284-.703.619a2.5 2.5 0 01-1.803 1.803c-.335.086-.619.358-.619.703s.284.617.619.703a2.501 2.501 0 011.803 1.804zm.228-2.982a.691.691 0 01.95 0 .691.691 0 010 .95.691.691 0 01-.95 0 .691.691 0 010-.95zM29.297 13.757c.086.334.358.618.703.618s.617-.284.703-.618a2.501 2.501 0 011.804-1.804c.334-.086.618-.358.618-.703s-.284-.617-.618-.703a2.501 2.501 0 01-1.804-1.803c-.086-.335-.358-.619-.703-.619s-.617.284-.703.619a2.501 2.501 0 01-1.803 1.803c-.335.086-.619.358-.619.703s.284.617.619.703a2.501 2.501 0 011.803 1.804zm.228-2.982a.691.691 0 01.95 0 .691.691 0 010 .95.691.691 0 01-.95 0 .691.691 0 010-.95zM19.297 8.131c.086.335.358.619.703.619s.617-.284.703-.619a2.501 2.501 0 011.803-1.803c.335-.086.619-.358.619-.703s-.284-.617-.619-.703a2.5 2.5 0 01-1.803-1.803c-.086-.335-.358-.619-.703-.619s-.617.284-.703.619a2.501 2.501 0 01-1.803 1.803c-.335.086-.619.358-.619.703s.284.617.619.703a2.5 2.5 0 011.803 1.803zm.228-2.981a.691.691 0 01.95 0 .691.691 0 010 .95.691.691 0 01-.95 0 .691.691 0 010-.95zM9.092 27.602l-4.375-2.86a.625.625 0 00-.967.483l-.175 2.784a.625.625 0 00.297.572l2.5 1.533a.624.624 0 00.688-.023l2.05-1.457a.625.625 0 00-.02-1.032h.002zm-2.417 1.23l-1.828-1.12.085-1.337 2.708 1.77-.965.687zM30.625 28.113a.625.625 0 00.263.521l2.05 1.457a.626.626 0 00.687.023l2.5-1.533a.625.625 0 00.297-.572l-.172-2.783a.626.626 0 00-.965-.484l-4.375 2.86a.626.626 0 00-.285.51zm4.443-1.738l.085 1.336-1.828 1.122-.966-.688 2.71-1.77z" fill="currentColor"/><mask id="qa" maskUnits="userSpaceOnUse" x="-.373" y="14" width="41" height="25" fill="#000"><path fill="#fff" d="M-.373 14h41v25h-41z"/><path d="M38.126 21.875a.625.625 0 00.442-.184l.625-.625a.625.625 0 00.116-.72l-.625-1.25a.624.624 0 00-.558-.346h-2.5a.625.625 0 00-.442.183l-.625.625a.624.624 0 00-.118.721l.486.971-.239.477-.892-1.783a8.125 8.125 0 00-6.727-4.475L20.042 15h-.083l-7.027.468a8.095 8.095 0 00-4.536 1.763 8.195 8.195 0 00-2.191 2.713l-.892 1.784-.239-.478.489-.97a.625.625 0 00-.118-.722l-.625-.625a.626.626 0 00-.445-.183h-2.5a.625.625 0 00-.558.346l-.625 1.25a.625.625 0 00.116.716l.625.625a.625.625 0 00.442.188H3.99l.298.596-1.44.716a.637.637 0 00-.242.213l-1.25 1.875a.629.629 0 00-.105.35v7.966A1.914 1.914 0 001.875 35v1.212a1.896 1.896 0 001.875 1.913h2.5a1.88 1.88 0 001.813-1.438l1.875.188.063.003a.62.62 0 00.246-.05l2.032-.871.287.575a.625.625 0 00.56.343h13.75a.625.625 0 00.562-.346l.288-.575 2.031.87a.62.62 0 00.243.051c.021 0 .042 0 .063-.003l1.866-.188a1.848 1.848 0 001.822 1.441h2.5a1.897 1.897 0 001.875-1.913V35a1.913 1.913 0 00.625-1.409v-7.966a.629.629 0 00-.105-.347l-1.25-1.875a.637.637 0 00-.241-.212l-1.438-.72.295-.596h2.114zM9.178 18.209a6.842 6.842 0 013.837-1.492L20 16.25l6.985.466a6.88 6.88 0 015.693 3.786l.686 1.373H6.637l.687-1.375a6.825 6.825 0 011.854-2.291zm23.688 4.916l-3.818 3.819-4.135 1.181h-2.265l-1.118-.563a.624.624 0 00-.28-.062h-2.5a.624.624 0 00-.279.063l-1.118.562h-2.265l-4.125-1.18-3.623-3.82h25.526zm-28.875-2.5H2.135L2.01 20.5l.25-.5h1.857l.125.125-.25.5zm-.74 12.75a.625.625 0 00-.126.375v.63l-.34-.233a.672.672 0 01-.285-.556v-3.957l2.032 2.031-1.282 1.71zm3 3.5h-2.5a.646.646 0 01-.626-.663v-.313l.125.085a.612.612 0 00.438.266l3.084.309a.609.609 0 01-.522.316zm19.62-3.074l-.492 1.148 1.193.512-.083.164H13.512l-.083-.164 1.193-.512-.493-1.148-4.227 1.812-5.527-.55v-1.105l1.46-1.947 7.196 1.106a.603.603 0 00.095.008h13.75a.596.596 0 00.094-.008l7.195-1.106 1.46 1.947v1.105l-5.526.552-4.227-1.814zm10.88-.426l-1.282-1.71 2.032-2.031v3.957a.671.671 0 01-.286.556l-.34.234v-.631a.625.625 0 00-.124-.375zm-.5 3.5h-2.5a.61.61 0 01-.522-.32l3.084-.305a.611.611 0 00.438-.266l.125-.084v.313a.646.646 0 01-.625.662zm1.25-11.063v2.052l-2.798 2.798-7.876 1.213H13.174l-7.875-1.211L2.5 27.866v-2.053l1.054-1.58 2.114-1.057 4.504 4.75c.077.08.174.14.282.17l4.375 1.25a.638.638 0 00.171.029h2.5a.624.624 0 00.28-.063l1.118-.562h2.205l1.118.563a.624.624 0 00.28.062H25a.632.632 0 00.171-.024l4.375-1.25a.628.628 0 00.27-.16l4.684-4.681 1.949.974 1.05 1.578zM35.884 20h1.855l.25.5-.125.125h-1.852l-.25-.5.122-.125z"/></mask><path d="M38.126 21.875a.625.625 0 00.442-.184l.625-.625a.625.625 0 00.116-.72l-.625-1.25a.624.624 0 00-.558-.346h-2.5a.625.625 0 00-.442.183l-.625.625a.624.624 0 00-.118.721l.486.971-.239.477-.892-1.783a8.125 8.125 0 00-6.727-4.475L20.042 15h-.083l-7.027.468a8.095 8.095 0 00-4.536 1.763 8.195 8.195 0 00-2.191 2.713l-.892 1.784-.239-.478.489-.97a.625.625 0 00-.118-.722l-.625-.625a.626.626 0 00-.445-.183h-2.5a.625.625 0 00-.558.346l-.625 1.25a.625.625 0 00.116.716l.625.625a.625.625 0 00.442.188H3.99l.298.596-1.44.716a.637.637 0 00-.242.213l-1.25 1.875a.629.629 0 00-.105.35v7.966A1.914 1.914 0 001.875 35v1.212a1.896 1.896 0 001.875 1.913h2.5a1.88 1.88 0 001.813-1.438l1.875.188.063.003a.62.62 0 00.246-.05l2.032-.871.287.575a.625.625 0 00.56.343h13.75a.625.625 0 00.562-.346l.288-.575 2.031.87a.62.62 0 00.243.051c.021 0 .042 0 .063-.003l1.866-.188a1.848 1.848 0 001.822 1.441h2.5a1.897 1.897 0 001.875-1.913V35a1.913 1.913 0 00.625-1.409v-7.966a.629.629 0 00-.105-.347l-1.25-1.875a.637.637 0 00-.241-.212l-1.438-.72.295-.596h2.114zM9.178 18.209a6.842 6.842 0 013.837-1.492L20 16.25l6.985.466a6.88 6.88 0 015.693 3.786l.686 1.373H6.637l.687-1.375a6.825 6.825 0 011.854-2.291zm23.688 4.916l-3.818 3.819-4.135 1.181h-2.265l-1.118-.563a.624.624 0 00-.28-.062h-2.5a.624.624 0 00-.279.063l-1.118.562h-2.265l-4.125-1.18-3.623-3.82h25.526zm-28.875-2.5H2.135L2.01 20.5l.25-.5h1.857l.125.125-.25.5zm-.74 12.75a.625.625 0 00-.126.375v.63l-.34-.233a.672.672 0 01-.285-.556v-3.957l2.032 2.031-1.282 1.71zm3 3.5h-2.5a.646.646 0 01-.626-.663v-.313l.125.085a.612.612 0 00.438.266l3.084.309a.609.609 0 01-.522.316zm19.62-3.074l-.492 1.148 1.193.512-.083.164H13.512l-.083-.164 1.193-.512-.493-1.148-4.227 1.812-5.527-.55v-1.105l1.46-1.947 7.196 1.106a.603.603 0 00.095.008h13.75a.596.596 0 00.094-.008l7.195-1.106 1.46 1.947v1.105l-5.526.552-4.227-1.814zm10.88-.426l-1.282-1.71 2.032-2.031v3.957a.671.671 0 01-.286.556l-.34.234v-.631a.625.625 0 00-.124-.375zm-.5 3.5h-2.5a.61.61 0 01-.522-.32l3.084-.305a.611.611 0 00.438-.266l.125-.084v.313a.646.646 0 01-.625.662zm1.25-11.063v2.052l-2.798 2.798-7.876 1.213H13.174l-7.875-1.211L2.5 27.866v-2.053l1.054-1.58 2.114-1.057 4.504 4.75c.077.08.174.14.282.17l4.375 1.25a.638.638 0 00.171.029h2.5a.624.624 0 00.28-.063l1.118-.562h2.205l1.118.563a.624.624 0 00.28.062H25a.632.632 0 00.171-.024l4.375-1.25a.628.628 0 00.27-.16l4.684-4.681 1.949.974 1.05 1.578zM35.884 20h1.855l.25.5-.125.125h-1.852l-.25-.5.122-.125z" fill="currentColor"/><path d="M38.126 21.875a.625.625 0 00.442-.184l.625-.625a.625.625 0 00.116-.72l-.625-1.25a.624.624 0 00-.558-.346h-2.5a.625.625 0 00-.442.183l-.625.625a.624.624 0 00-.118.721l.486.971-.239.477-.892-1.783a8.125 8.125 0 00-6.727-4.475L20.042 15h-.083l-7.027.468a8.095 8.095 0 00-4.536 1.763 8.195 8.195 0 00-2.191 2.713l-.892 1.784-.239-.478.489-.97a.625.625 0 00-.118-.722l-.625-.625a.626.626 0 00-.445-.183h-2.5a.625.625 0 00-.558.346l-.625 1.25a.625.625 0 00.116.716l.625.625a.625.625 0 00.442.188H3.99l.298.596-1.44.716a.637.637 0 00-.242.213l-1.25 1.875a.629.629 0 00-.105.35v7.966A1.914 1.914 0 001.875 35v1.212a1.896 1.896 0 001.875 1.913h2.5a1.88 1.88 0 001.813-1.438l1.875.188.063.003a.62.62 0 00.246-.05l2.032-.871.287.575a.625.625 0 00.56.343h13.75a.625.625 0 00.562-.346l.288-.575 2.031.87a.62.62 0 00.243.051c.021 0 .042 0 .063-.003l1.866-.188a1.848 1.848 0 001.822 1.441h2.5a1.897 1.897 0 001.875-1.913V35a1.913 1.913 0 00.625-1.409v-7.966a.629.629 0 00-.105-.347l-1.25-1.875a.637.637 0 00-.241-.212l-1.438-.72.295-.596h2.114zM9.178 18.209a6.842 6.842 0 013.837-1.492L20 16.25l6.985.466a6.88 6.88 0 015.693 3.786l.686 1.373H6.637l.687-1.375a6.825 6.825 0 011.854-2.291zm23.688 4.916l-3.818 3.819-4.135 1.181h-2.265l-1.118-.563a.624.624 0 00-.28-.062h-2.5a.624.624 0 00-.279.063l-1.118.562h-2.265l-4.125-1.18-3.623-3.82h25.526zm-28.875-2.5H2.135L2.01 20.5l.25-.5h1.857l.125.125-.25.5zm-.74 12.75a.625.625 0 00-.126.375v.63l-.34-.233a.672.672 0 01-.285-.556v-3.957l2.032 2.031-1.282 1.71zm3 3.5h-2.5a.646.646 0 01-.626-.663v-.313l.125.085a.612.612 0 00.438.266l3.084.309a.609.609 0 01-.522.316zm19.62-3.074l-.492 1.148 1.193.512-.083.164H13.512l-.083-.164 1.193-.512-.493-1.148-4.227 1.812-5.527-.55v-1.105l1.46-1.947 7.196 1.106a.603.603 0 00.095.008h13.75a.596.596 0 00.094-.008l7.195-1.106 1.46 1.947v1.105l-5.526.552-4.227-1.814zm10.88-.426l-1.282-1.71 2.032-2.031v3.957a.671.671 0 01-.286.556l-.34.234v-.631a.625.625 0 00-.124-.375zm-.5 3.5h-2.5a.61.61 0 01-.522-.32l3.084-.305a.611.611 0 00.438-.266l.125-.084v.313a.646.646 0 01-.625.662zm1.25-11.063v2.052l-2.798 2.798-7.876 1.213H13.174l-7.875-1.211L2.5 27.866v-2.053l1.054-1.58 2.114-1.057 4.504 4.75c.077.08.174.14.282.17l4.375 1.25a.638.638 0 00.171.029h2.5a.624.624 0 00.28-.063l1.118-.562h2.205l1.118.563a.624.624 0 00.28.062H25a.632.632 0 00.171-.024l4.375-1.25a.628.628 0 00.27-.16l4.684-4.681 1.949.974 1.05 1.578zM35.884 20h1.855l.25.5-.125.125h-1.852l-.25-.5.122-.125z" stroke="currentColor" stroke-width=".6" stroke-linejoin="round" mask="url(#qa)"/><path d="M19.375 30a.625.625 0 101.25 0 .625.625 0 00-1.25 0z" fill="currentColor"/></symbol><symbol fill="none" viewBox="0 0 45 44" id="icon_wp" xmlns="http://www.w3.org/2000/svg"><g clip-path="url(#rclip0_447_485)"><path fill-rule="evenodd" clip-rule="evenodd" d="M23 44c12.15 0 22-9.85 22-22S35.15 0 23 0 1 9.85 1 22s9.85 22 22 22zm8.695-31.243a11.913 11.913 0 00-8.482-3.517c-6.61 0-11.99 5.38-11.992 11.991 0 2.113.551 4.177 1.6 5.995L11.12 33.44l6.357-1.667a11.98 11.98 0 005.73 1.46h.005c6.61 0 11.99-5.38 11.992-11.992a11.915 11.915 0 00-3.509-8.484zM28.68 23.742c-.3-.15-1.773-.875-2.048-.975-.274-.1-.474-.15-.674.15-.2.3-.774.975-.949 1.175-.175.2-.35.225-.649.075a4.5 4.5 0 00-.198-.09 7.732 7.732 0 01-2.211-1.398c-.891-.794-1.492-1.775-1.667-2.075-.175-.3-.02-.462.13-.611.09-.09.194-.216.297-.342.052-.063.103-.125.153-.183.127-.149.182-.261.257-.414l.043-.086c.1-.2.05-.375-.025-.525-.05-.1-.334-.792-.591-1.418l-.333-.807c-.215-.516-.432-.514-.607-.513l-.067-.001c-.175-.009-.375-.01-.574-.01a1.1 1.1 0 00-.8.374l-.058.064c-.313.333-.99 1.056-.99 2.436 0 1.471 1.068 2.893 1.223 3.098v.002l.053.073c.357.513 2.256 3.237 5.066 4.45.715.31 1.273.494 1.708.632.718.228 1.371.196 1.888.119.576-.086 1.772-.725 2.022-1.425.25-.7.25-1.3.175-1.425-.06-.1-.202-.17-.412-.27l-.162-.08z" fill="currentColor"/></g><defs><clipPath id="rclip0_447_485"><path fill="#fff" transform="translate(.969)" d="M0 0h44v44H0z"/></clipPath></defs></symbol><symbol fill="none" viewBox="0 0 45 44" id="icon_yt" xmlns="http://www.w3.org/2000/svg"><circle cx="22.969" cy="22" r="22" fill="currentColor"/><g clip-path="url(#sclip0_447_488)"><path d="M35.133 14.305c-.953-1.133-2.713-1.595-6.073-1.595H16.863c-3.437 0-5.226.492-6.176 1.698-.925 1.176-.925 2.909-.925 5.307v4.57c0 4.646 1.098 7.005 7.101 7.005H29.06c2.914 0 4.529-.408 5.573-1.408 1.072-1.025 1.529-2.699 1.529-5.597v-4.57c0-2.529-.072-4.272-1.03-5.41zm-8.422 8.326l-5.54 2.895a.851.851 0 01-1.245-.755v-5.77a.852.852 0 011.244-.757l5.539 2.877a.852.852 0 01.002 1.51z" fill="#fff"/></g><defs><clipPath id="sclip0_447_488"><path fill="#fff" transform="translate(9.762 8.8)" d="M0 0h26.4v26.4H0z"/></clipPath></defs></symbol></svg>